<svg width="24" height="24" viewBox="0 0 24 24" fill="none" xmlns="http://www.w3.org/2000/svg">
<path d="M12 2.72754C13.9771 2.72754 15.8735 3.51313 17.2715 4.91113C18.6692 6.30906 19.455 8.20478 19.4551 10.1816C19.4551 13.0711 17.58 15.849 15.5635 17.9775C14.5701 19.0261 13.5735 19.8836 12.8252 20.4795C12.4929 20.7441 12.21 20.9552 12 21.1084C11.7899 20.9552 11.507 20.744 11.1748 20.4795C10.4266 19.8837 9.43077 19.0259 8.4375 17.9775C6.42098 15.849 4.5459 13.0711 4.5459 10.1816C4.54595 8.20464 5.33154 6.30909 6.72949 4.91113C8.12745 3.51318 10.023 2.72759 12 2.72754Z" stroke="#A1A1A1" stroke-width="1.45455" stroke-linecap="round" stroke-linejoin="round"/>
<path d="M12 13C13.6569 13 15 11.6569 15 10C15 8.34315 13.6569 7 12 7C10.3431 7 9 8.34315 9 10C9 11.6569 10.3431 13 12 13Z" stroke="#A1A1A1" stroke-width="1.6" stroke-linecap="round" stroke-linejoin="round"/>
</svg>
