<svg width="24" height="24" viewBox="0 0 24 24" fill="none" xmlns="http://www.w3.org/2000/svg">
<path d="M12 2C14.1699 2 16.2508 2.86215 17.7852 4.39648C19.3195 5.93083 20.1816 8.01175 20.1816 10.1816C20.1816 16.5444 12.0023 21.9985 12 22C11.9991 21.9994 3.81836 16.5449 3.81836 10.1816C3.81841 8.01175 4.6805 5.93083 6.21484 4.39648C7.74922 2.86215 9.83009 2 12 2ZM12 7C10.3431 7 9 8.34315 9 10C9 11.6569 10.3431 13 12 13C13.6569 13 15 11.6569 15 10C15 8.34315 13.6569 7 12 7Z" fill="#404040"/>
</svg>
