<svg width="24" height="24" viewBox="0 0 24 24" fill="none" xmlns="http://www.w3.org/2000/svg">
<path d="M12 1.76953C17.6504 1.76953 22.2305 6.34971 22.2305 12C22.2305 17.6504 17.6504 22.2305 12 22.2305C6.34971 22.2305 1.76953 17.6504 1.76953 12C1.76953 6.3497 6.3497 1.76953 12 1.76953ZM16.1709 7.8291C15.9752 7.63355 15.6853 7.5649 15.4229 7.65234L6.65332 10.5752C6.38281 10.6655 6.18946 10.906 6.1582 11.1895C6.12725 11.4729 6.26429 11.7487 6.50879 11.8955L10.0059 13.9932L12.1045 17.4912C12.2513 17.7357 12.527 17.8729 12.8105 17.8418C13.0942 17.8106 13.3336 17.6164 13.4238 17.3457L16.3477 8.57715C16.435 8.31471 16.3664 8.02474 16.1709 7.8291Z" fill="#404040"/>
</svg>
