<svg width="24" height="24" viewBox="0 0 24 24" fill="none" xmlns="http://www.w3.org/2000/svg">
<path d="M22.1782 9.79547L18.3247 8.51129C17.9982 8.40229 17.7778 8.09671 17.7778 7.7525V4.88531H17.4575C16.6494 4.88531 15.9108 5.34219 15.5493 6.065L13.4263 10.3111C13.2907 10.5819 13.0133 10.7525 12.7104 10.7525H8.16846C6.65453 10.7525 5.18561 10.2373 4.00342 9.29156L3.24268 8.68317V19.4869C3.24268 20.2602 3.86975 20.8872 4.64307 20.8873C5.4164 20.8873 6.04346 20.2603 6.04346 19.4869V18.7535C6.04368 17.5018 7.05833 16.487 8.31006 16.4869H11.2437C12.4955 16.4869 13.51 17.5018 13.5103 18.7535V19.4869C13.5103 20.2602 14.1375 20.8871 14.9106 20.8873C15.684 20.8873 16.311 20.2603 16.311 19.4869V13.6197C16.3112 13.1781 16.6693 12.8201 17.1108 12.8199H20.0454C21.2236 12.8196 22.1782 11.8643 22.1782 10.6861V9.79547ZM23.7788 10.6861C23.7788 12.748 22.1072 14.4192 20.0454 14.4195H17.9116V19.4869C17.9116 21.1439 16.5676 22.4879 14.9106 22.4879C13.2538 22.4877 11.9106 21.1438 11.9106 19.4869V18.7535C11.9104 18.3854 11.6118 18.0875 11.2437 18.0875H8.31006C7.94199 18.0876 7.64329 18.3855 7.64307 18.7535V19.4869C7.64307 21.1439 6.30005 22.4879 4.64307 22.4879C2.9861 22.4878 1.64307 21.1439 1.64307 19.4869V7.0191C1.6431 6.71169 1.81916 6.43164 2.09619 6.2984C2.37335 6.16519 2.70274 6.20203 2.94287 6.3941L5.00244 8.04254C5.90095 8.76135 7.01781 9.15289 8.16846 9.15289H12.2163L14.1177 5.34918C14.7501 4.08432 16.0433 3.28571 17.4575 3.28571H18.5776C19.0195 3.28571 19.3784 3.64368 19.3784 4.08551V7.17535L23.2319 8.46051C23.5584 8.56948 23.7787 8.87513 23.7788 9.2193V10.6861Z" fill="#A1A1A1"/>
<path d="M12.5397 8.98351C12.9688 8.87845 13.4024 9.14133 13.5075 9.57043C13.7447 10.5391 14.8979 12.6136 17.5622 12.8663C18.0019 12.908 18.3243 13.2977 18.2829 13.7374C18.2412 14.1773 17.8507 14.5008 17.4108 14.4591C13.8486 14.1211 12.2923 11.3375 11.9528 9.95129C11.8477 9.52217 12.1106 9.08863 12.5397 8.98351Z" fill="#A1A1A1"/>
</svg>
