<svg width="24" height="24" viewBox="0 0 24 24" fill="none" xmlns="http://www.w3.org/2000/svg">
<g clip-path="url(#clip0_83_22885)">
<path d="M16.0716 3.17859H4.53585C3.78632 3.17859 3.17871 3.7862 3.17871 4.53573V16.0714C3.17871 16.821 3.78632 17.4286 4.53585 17.4286H16.0716C16.8211 17.4286 17.4287 16.821 17.4287 16.0714V4.53573C17.4287 3.7862 16.8211 3.17859 16.0716 3.17859Z" stroke="#A1A1A1" stroke-width="1.52" stroke-linecap="round" stroke-linejoin="round"/>
<path d="M20.8214 7.24994V19.4642C20.8214 19.8241 20.6784 20.1694 20.4239 20.4239C20.1695 20.6783 19.8242 20.8214 19.4643 20.8214H7.25" stroke="#A1A1A1" stroke-width="1.52" stroke-linecap="round" stroke-linejoin="round"/>
<path d="M7.58968 12.8683V7.73829C7.58865 7.6507 7.61119 7.56444 7.65493 7.48855C7.69867 7.41265 7.76201 7.34993 7.83832 7.3069C7.91463 7.2639 8.0011 7.2422 8.08867 7.24407C8.17625 7.24594 8.26171 7.27133 8.33611 7.31757L12.774 9.88257C12.8471 9.92576 12.9078 9.98729 12.9499 10.0611C12.992 10.1348 13.0141 10.2183 13.0141 10.3033C13.0141 10.3882 12.992 10.4717 12.9499 10.5455C12.9078 10.6193 12.8471 10.6808 12.774 10.724L8.33611 13.3569C8.25674 13.4078 8.16429 13.4348 8.06996 13.4344C7.97562 13.4339 7.88343 13.4062 7.8045 13.3546C7.72557 13.3029 7.66328 13.2295 7.62515 13.1432C7.58703 13.0569 7.57472 12.9614 7.58968 12.8683Z" stroke="#A1A1A1" stroke-width="1.52" stroke-linecap="round" stroke-linejoin="round"/>
</g>
<defs>
<clipPath id="clip0_83_22885">
<rect width="19" height="19" fill="white" transform="translate(2.5 2.5)"/>
</clipPath>
</defs>
</svg>
