<svg width="16" height="17" viewBox="0 0 16 17" fill="none" xmlns="http://www.w3.org/2000/svg">
<g clip-path="url(#clip0_168_16783)">
<path fill-rule="evenodd" clip-rule="evenodd" d="M5.52109 1.47118C5.32801 1.28736 5.02466 1.28736 4.83157 1.47118L1.15524 4.97118C1.05611 5.06555 1 5.19644 1 5.33331V14.8333C1 15.1094 1.22386 15.3333 1.5 15.3333H4.17633V13.3333C4.17633 12.781 4.62405 12.3333 5.17633 12.3333C5.72862 12.3333 6.17633 12.781 6.17633 13.3333V15.3333H8.85266C9.12881 15.3333 9.35266 15.1094 9.35266 14.8333V5.33331C9.35266 5.19644 9.29656 5.06555 9.19743 4.97118L5.52109 1.47118ZM10.7686 7.83331C10.7686 7.55717 10.9925 7.33331 11.2686 7.33331H14.5C14.7761 7.33331 15 7.55717 15 7.83331V14.8333C15 15.1094 14.7761 15.3333 14.5 15.3333H11.2686C10.9925 15.3333 10.7686 15.1094 10.7686 14.8333V7.83331ZM3.1727 9.09629C3.1727 8.75111 3.45252 8.47129 3.7977 8.47129H6.55495C6.90013 8.47129 7.17995 8.75111 7.17995 9.09629C7.17995 9.44147 6.90013 9.72129 6.55495 9.72129H3.7977C3.45252 9.72129 3.1727 9.44147 3.1727 9.09629ZM3.7977 5.86394C3.45252 5.86394 3.1727 6.14376 3.1727 6.48894C3.1727 6.83412 3.45252 7.11394 3.7977 7.11394H6.55495C6.90013 7.11394 7.17995 6.83412 7.17995 6.48894C7.17995 6.14376 6.90013 5.86394 6.55495 5.86394H3.7977Z" fill="#525252"/>
</g>
<defs>
<clipPath id="clip0_168_16783">
<rect width="14" height="14" fill="white" transform="translate(1 1.33331)"/>
</clipPath>
</defs>
</svg>
