<svg width="16" height="17" viewBox="0 0 16 17" fill="none" xmlns="http://www.w3.org/2000/svg">
<path fill-rule="evenodd" clip-rule="evenodd" d="M1.99919 2.99998C1.99919 2.63179 2.29766 2.33331 2.66585 2.33331H10.6659C11.034 2.33331 11.3325 2.63179 11.3325 2.99998V3.66665H11.9992C13.1038 3.66665 13.9992 4.56208 13.9992 5.66665V6.99998C13.9992 8.10455 13.1038 8.99998 11.9992 8.99998H11.1049C10.5558 10.5536 9.07414 11.6666 7.33252 11.6666H5.99919C3.79005 11.6666 1.99919 9.87579 1.99919 7.66665V2.99998ZM11.3325 4.99998V7.66665H11.9992C12.3674 7.66665 12.6659 7.36817 12.6659 6.99998V5.66665C12.6659 5.29846 12.3674 4.99998 11.9992 4.99998H11.3325Z" fill="#525252"/>
<path d="M1.33252 13.6666C1.33252 13.2985 1.631 13 1.99919 13H13.9992C14.3674 13 14.6659 13.2985 14.6659 13.6666C14.6659 14.0348 14.3674 14.3333 13.9992 14.3333H1.99919C1.631 14.3333 1.33252 14.0348 1.33252 13.6666Z" fill="#525252"/>
</svg>
