<svg width="24" height="25" viewBox="0 0 24 25" fill="none" xmlns="http://www.w3.org/2000/svg">
<path d="M12 10.6416C16.0808 10.6416 18.1211 14.9674 18.1211 17.7832C18.1207 20.5986 14.8156 21.8633 12 21.8633C9.18443 21.8632 5.87929 20.5986 5.87891 17.7832C5.87891 14.9675 7.91927 10.6417 12 10.6416ZM3.81836 9.6416C4.94518 9.6417 5.8584 11.0119 5.8584 12.7021C5.85829 14.3923 4.94511 15.7626 3.81836 15.7627C2.69154 15.7627 1.77745 14.3923 1.77734 12.7021C1.77734 11.0118 2.69147 9.6416 3.81836 9.6416ZM20.1826 9.6416C21.3095 9.6417 22.2227 11.0119 22.2227 12.7021C22.2225 14.3923 21.3094 15.7626 20.1826 15.7627C19.0558 15.7627 18.1427 14.3923 18.1426 12.7021C18.1426 11.0118 19.0557 9.6416 20.1826 9.6416ZM8.48926 2.5C9.86421 2.5 10.9795 4.17192 10.9795 6.23438C10.9795 8.29685 9.86423 9.96875 8.48926 9.96875C7.11446 9.96845 6 8.29667 6 6.23438C6.00002 4.17211 7.11447 2.5003 8.48926 2.5ZM15.5107 2.5C16.8856 2.5004 17.9999 4.17215 18 6.23438C18 8.29671 16.8856 9.96835 15.5107 9.96875C14.1357 9.96875 13.0205 8.29696 13.0205 6.23438C13.0206 4.17191 14.1358 2.5 15.5107 2.5Z" fill="#525252"/>
</svg>
