<svg width="24" height="25" viewBox="0 0 24 25" fill="none" xmlns="http://www.w3.org/2000/svg">
<path fill-rule="evenodd" clip-rule="evenodd" d="M7.91638 16.4375C8.63242 16.4375 9.32908 16.673 9.89795 17.1078C10.4668 17.5428 10.8765 18.1536 11.0643 18.8446H21.6246C21.8565 18.8446 22.0796 18.9358 22.2437 19.0997C22.4077 19.2637 22.4999 19.4868 22.5 19.7188C22.5 19.9508 22.4077 20.1737 22.2437 20.3378C22.0796 20.5019 21.8566 20.5942 21.6246 20.5942H11.0643C10.8765 21.285 10.4667 21.8948 9.89795 22.3297C9.32907 22.7646 8.63246 23 7.91638 23C7.20052 22.9999 6.50484 22.7644 5.9361 22.3297C5.36723 21.8948 4.95625 21.2852 4.76843 20.5942H2.37543C2.14341 20.5942 1.92043 20.5019 1.75635 20.3378C1.59225 20.1737 1.5 19.9508 1.5 19.7188C1.50006 19.4868 1.5923 19.2637 1.75635 19.0997C1.92041 18.9358 2.14351 18.8446 2.37543 18.8446H4.76843C4.95624 18.1536 5.36721 17.5428 5.9361 17.1078C6.5048 16.6732 7.2006 16.4376 7.91638 16.4375ZM7.61774 18.2166C7.32076 18.2756 7.04745 18.4216 6.83331 18.6357C6.61918 18.8498 6.47328 19.1231 6.41418 19.4201C6.35514 19.717 6.38562 20.0248 6.50134 20.3045C6.61716 20.5841 6.81375 20.8233 7.06531 20.9915C7.31712 21.1598 7.61353 21.2504 7.91638 21.2504C8.32228 21.2497 8.71116 21.0875 8.99817 20.8005C9.28512 20.5135 9.44737 20.1246 9.44806 19.7188C9.44802 19.416 9.35736 19.1194 9.18915 18.8677C9.02091 18.6161 8.78172 18.4195 8.50214 18.3037C8.2225 18.188 7.91457 18.1576 7.61774 18.2166Z" fill="#525252"/>
<path fill-rule="evenodd" clip-rule="evenodd" d="M16.0836 9.21747C16.7998 9.21747 17.4963 9.45273 18.0652 9.88782C18.6339 10.3229 19.0441 10.9335 19.2316 11.6246H21.6246C21.8566 11.6246 22.0796 11.7168 22.2437 11.8809C22.4075 12.0449 22.4999 12.2669 22.5 12.4987C22.5 12.7308 22.4077 12.9537 22.2437 13.1178C22.0796 13.2819 21.8566 13.3741 21.6246 13.3741H19.2316C19.0441 14.0653 18.634 14.6758 18.0652 15.1109C17.4963 15.546 16.7998 15.7812 16.0836 15.7812C15.3675 15.7812 14.6709 15.546 14.1021 15.1109C13.5333 14.6758 13.1232 14.0653 12.9357 13.3741H2.37543C2.14336 13.3741 1.92044 13.2819 1.75635 13.1178C1.59225 12.9537 1.5 12.7308 1.5 12.4987C1.50011 12.2669 1.59249 12.0449 1.75635 11.8809C1.92044 11.7168 2.14336 11.6246 2.37543 11.6246H12.9357C13.1231 10.9335 13.5334 10.3229 14.1021 9.88782C14.6709 9.45273 15.3675 9.21747 16.0836 9.21747ZM15.785 10.9978C15.4879 11.0569 15.2147 11.2028 15.0005 11.4169C14.7867 11.631 14.6405 11.9033 14.5814 12.2001C14.5223 12.4971 14.5527 12.806 14.6686 13.0858C14.7845 13.3654 14.9809 13.6046 15.2325 13.7728C15.4844 13.941 15.7808 14.0304 16.0836 14.0304C16.4894 14.0299 16.8784 13.8686 17.1654 13.5818C17.4525 13.2947 17.6148 12.9047 17.6153 12.4987C17.6152 12.1961 17.5245 11.9006 17.3564 11.6489C17.1881 11.3971 16.9492 11.2009 16.6694 11.085C16.3896 10.9691 16.082 10.9387 15.785 10.9978Z" fill="#525252"/>
<path fill-rule="evenodd" clip-rule="evenodd" d="M7.91638 2C8.63242 2 9.32908 2.23549 9.89795 2.67035C10.4668 3.10526 10.8765 3.71609 11.0643 4.4071H21.6246C21.8565 4.4071 22.0796 4.49828 22.2437 4.66217C22.4077 4.82621 22.4999 5.04927 22.5 5.28125C22.5 5.51331 22.4077 5.73624 22.2437 5.90033C22.0796 6.06436 21.8566 6.15668 21.6246 6.15668H11.0643C10.8765 6.84754 10.4667 7.4573 9.89795 7.89215C9.32907 8.32706 8.63246 8.5625 7.91638 8.5625C7.20051 8.56241 6.50484 8.3269 5.9361 7.89215C5.36722 7.45725 4.95624 6.84767 4.76843 6.15668H2.37543C2.14341 6.15668 1.92043 6.06436 1.75635 5.90033C1.59225 5.73624 1.5 5.51331 1.5 5.28125C1.50006 5.04927 1.59231 4.82621 1.75635 4.66217C1.92041 4.49828 2.14352 4.4071 2.37543 4.4071H4.76843C4.95624 3.71609 5.36721 3.10526 5.9361 2.67035C6.5048 2.23571 7.2006 2.00009 7.91638 2ZM7.91638 3.75085C7.51047 3.75132 7.12165 3.91247 6.83459 4.19946C6.54758 4.48647 6.38523 4.87536 6.3847 5.28125C6.3847 5.5841 6.47536 5.88051 6.64362 6.13232C6.81186 6.384 7.05093 6.58044 7.33063 6.69629C7.61033 6.81209 7.91811 6.84249 8.21503 6.78345C8.51206 6.72436 8.7853 6.57847 8.99945 6.36432C9.21354 6.15019 9.35951 5.87687 9.41858 5.5799C9.47755 5.28302 9.44723 4.97514 9.33142 4.6955C9.21558 4.41582 9.0191 4.17673 8.76746 4.00848C8.51565 3.84023 8.21923 3.75086 7.91638 3.75085Z" fill="#525252"/>
</svg>
