<svg width="73" height="22" viewBox="0 0 73 22" fill="none" xmlns="http://www.w3.org/2000/svg">
<path d="M2.436 17.0059C2.436 15.6199 3.059 14.5909 4.305 13.9189C5.565 13.2469 7.441 12.9109 9.933 12.9109C12.425 12.9109 14.294 13.2469 15.54 13.9189C16.8 14.5909 17.43 15.6199 17.43 17.0059C17.43 18.3919 16.8 19.4209 15.54 20.0929C14.294 20.7649 12.425 21.1009 9.933 21.1009C7.441 21.1009 5.565 20.7649 4.305 20.0929C3.059 19.4209 2.436 18.3919 2.436 17.0059ZM14.175 2.59993C14.175 2.16593 14.392 1.94893 14.826 1.94893H16.359C16.793 1.94893 17.01 2.16593 17.01 2.59993V11.5039C17.01 11.9379 16.793 12.1549 16.359 12.1549H14.826C14.392 12.1549 14.175 11.9379 14.175 11.5039V8.16493H13.419C13.181 8.16493 12.985 8.24193 12.831 8.39593C12.677 8.53593 12.6 8.72493 12.6 8.96293V11.0839C12.6 11.5179 12.383 11.7349 11.949 11.7349H10.416C9.982 11.7349 9.765 11.5179 9.765 11.0839V2.80992C9.765 2.37593 9.982 2.15893 10.416 2.15893H11.949C12.383 2.15893 12.6 2.37593 12.6 2.80992V5.70793C12.782 5.45593 13.055 5.32993 13.419 5.32993H14.175V2.59993ZM5.271 11.8189C3.451 11.8189 2.114 11.4479 1.26 10.7059C0.42 9.94993 0 8.75993 0 7.13593C0 5.51193 0.434 4.32193 1.302 3.56593C2.184 2.80993 3.556 2.43193 5.418 2.43193C5.81 2.43193 6.174 2.44593 6.51 2.47393C6.846 2.50193 7.182 2.54393 7.518 2.59993C7.77 2.64193 7.938 2.71193 8.022 2.80992C8.12 2.90793 8.169 3.06193 8.169 3.27193V4.80493C8.169 5.32293 7.952 5.53293 7.518 5.43493C7.238 5.37893 6.944 5.33693 6.636 5.30893C6.328 5.28093 5.971 5.26693 5.565 5.26693C4.599 5.26693 3.899 5.41393 3.465 5.70793C3.045 5.98793 2.835 6.46393 2.835 7.13593C2.835 7.82193 3.024 8.30493 3.402 8.58493C3.78 8.85093 4.417 8.98393 5.313 8.98393C5.719 8.98393 6.132 8.94893 6.552 8.87893C6.986 8.80893 7.385 8.71093 7.749 8.58493C8.127 8.45893 8.372 8.61993 8.484 9.06793L8.82 10.5379C8.918 10.9299 8.743 11.2029 8.295 11.3569C7.847 11.5109 7.364 11.6299 6.846 11.7139C6.328 11.7839 5.803 11.8189 5.271 11.8189ZM9.933 18.3709C11.557 18.3709 12.705 18.2659 13.377 18.0559C14.049 17.8599 14.385 17.5099 14.385 17.0059C14.385 16.5019 14.049 16.1519 13.377 15.9559C12.705 15.7459 11.557 15.6409 9.933 15.6409C8.309 15.6409 7.161 15.7459 6.489 15.9559C5.817 16.1519 5.481 16.5019 5.481 17.0059C5.481 17.5099 5.817 17.8599 6.489 18.0559C7.161 18.2659 8.309 18.3709 9.933 18.3709Z" fill="#00A63E"/>
<path d="M34.2679 17.6569C33.8899 17.6569 33.5189 17.6499 33.1549 17.6359C32.7909 17.6359 32.3709 17.6289 31.8949 17.6149C31.4329 17.6149 30.8799 17.6079 30.2359 17.5939C29.5919 17.5939 28.7869 17.5939 27.8209 17.5939C27.0509 17.5939 26.4279 17.6009 25.9519 17.6149C25.4759 17.6429 25.1049 17.6779 24.8389 17.7199C24.5869 17.7619 24.4119 17.8179 24.3139 17.8879C24.2299 17.9719 24.1879 18.0699 24.1879 18.1819C24.1879 18.2939 24.2439 18.3849 24.3559 18.4549C24.4679 18.5389 24.6919 18.6019 25.0279 18.6439C25.3639 18.6859 25.8469 18.7139 26.4769 18.7279C27.1069 18.7559 27.9399 18.7699 28.9759 18.7699C29.4099 18.7699 29.8859 18.7629 30.4039 18.7489C30.9219 18.7349 31.4399 18.7069 31.9579 18.6649C32.4899 18.6369 32.9939 18.6019 33.4699 18.5599C33.9459 18.5179 34.3589 18.4619 34.7089 18.3919C35.0729 18.3219 35.2689 18.4689 35.2969 18.8329L35.4019 20.1559C35.4299 20.4779 35.2689 20.6599 34.9189 20.7019C34.5409 20.7579 34.0999 20.8069 33.5959 20.8489C33.0919 20.8909 32.5669 20.9259 32.0209 20.9539C31.4889 20.9959 30.9569 21.0239 30.4249 21.0379C29.9069 21.0659 29.4309 21.0799 28.9969 21.0799C27.4849 21.0799 26.2249 21.0309 25.2169 20.9329C24.2089 20.8349 23.4039 20.6669 22.8019 20.4289C22.1999 20.2049 21.7729 19.9039 21.5209 19.5259C21.2689 19.1619 21.1429 18.6999 21.1429 18.1399C21.1429 17.5939 21.2689 17.1389 21.5209 16.7749C21.7869 16.3969 22.1929 16.1029 22.7389 15.8929C23.2849 15.6689 23.9709 15.5149 24.7969 15.4309C25.6369 15.3329 26.6309 15.2839 27.7789 15.2839C28.3669 15.2839 28.9619 15.2839 29.5639 15.2839C30.1799 15.2699 30.7189 15.2629 31.1809 15.2629C31.4609 15.2629 31.6569 15.2209 31.7689 15.1369C31.8949 15.0389 31.9579 14.9129 31.9579 14.7589C31.9579 14.4509 31.7129 14.2969 31.2229 14.2969C30.7189 14.2969 30.0749 14.3039 29.2909 14.3179C28.5209 14.3319 27.7019 14.3599 26.8339 14.4019C25.9799 14.4299 25.1329 14.4649 24.2929 14.5069C23.4529 14.5489 22.7249 14.5979 22.1089 14.6539C21.7449 14.6819 21.5629 14.5139 21.5629 14.1499V12.8269C21.5629 12.5049 21.7449 12.3369 22.1089 12.3229C22.9069 12.2669 23.7609 12.2179 24.6709 12.1759C25.5949 12.1339 26.5259 12.0989 27.4639 12.0709C28.4159 12.0429 29.3539 12.0289 30.2779 12.0289C31.2019 12.0289 32.0699 12.0429 32.8819 12.0709C33.5539 12.0989 34.0719 12.2599 34.4359 12.5539C34.7999 12.8339 34.9819 13.2259 34.9819 13.7299C34.9819 14.1359 34.8699 14.4929 34.6459 14.8009C34.4359 15.1089 34.1419 15.3329 33.7639 15.4729H34.2679C34.4219 15.4729 34.5479 15.5149 34.6459 15.5989C34.7579 15.6829 34.8139 15.8019 34.8139 15.9559V17.1529C34.8139 17.3069 34.7649 17.4259 34.6669 17.5099C34.5689 17.6079 34.4359 17.6569 34.2679 17.6569ZM22.1299 2.76793C22.5919 2.72593 23.1309 2.68393 23.7469 2.64193C24.3769 2.59993 25.0559 2.56493 25.7839 2.53693C26.5259 2.49493 27.2959 2.46693 28.0939 2.45293C28.8919 2.42493 29.6969 2.41093 30.5089 2.41093C31.9509 2.41093 33.0009 2.70492 33.6589 3.29292C34.3309 3.88093 34.6669 4.81193 34.6669 6.08593C34.6669 6.49193 34.6249 6.91193 34.5409 7.34593C34.4709 7.76593 34.3799 8.17893 34.2679 8.58493C34.5199 8.57093 34.7509 8.55693 34.9609 8.54293C35.1849 8.52893 35.3739 8.51493 35.5279 8.50093C35.9759 8.45893 36.1999 8.65493 36.1999 9.08893V10.2019C36.1999 10.3979 36.1509 10.5449 36.0529 10.6429C35.9549 10.7409 35.7869 10.8039 35.5489 10.8319C35.2269 10.8599 34.7999 10.8879 34.2679 10.9159C33.7499 10.9299 33.1549 10.9439 32.4829 10.9579C31.8249 10.9719 31.1109 10.9859 30.3409 10.9999C29.5709 10.9999 28.7729 10.9999 27.9469 10.9999C26.4629 10.9999 25.0559 10.9929 23.7259 10.9789C22.4099 10.9509 21.2899 10.9019 20.3659 10.8319C20.1279 10.8039 19.9599 10.7409 19.8619 10.6429C19.7639 10.5449 19.7149 10.3979 19.7149 10.2019V9.08893C19.7149 8.65493 19.9319 8.45893 20.3659 8.50093C21.2759 8.57093 22.3889 8.61993 23.7049 8.64793C25.0349 8.66193 26.4419 8.66893 27.9259 8.66893C28.5139 8.66893 29.0809 8.66893 29.6269 8.66893C30.1729 8.66893 30.6979 8.66193 31.2019 8.64793C31.3139 8.38193 31.4119 8.09493 31.4959 7.78693C31.5939 7.46493 31.6429 7.15693 31.6429 6.86293C31.6429 5.74293 30.9639 5.18293 29.6059 5.18293C28.5139 5.18293 27.3449 5.21793 26.0989 5.28793C24.8669 5.35793 23.5439 5.44193 22.1299 5.53993C21.9339 5.55393 21.7729 5.51193 21.6469 5.41393C21.5209 5.30193 21.4579 5.14793 21.4579 4.95193V3.39793C21.4579 3.21593 21.5209 3.07593 21.6469 2.97793C21.7729 2.86593 21.9339 2.79593 22.1299 2.76793Z" fill="#00A63E"/>
<path d="M48.2045 2.38993C48.2045 2.69793 48.3935 2.85193 48.7715 2.85193H52.4465C52.9085 2.85193 53.1395 3.08293 53.1395 3.54493V4.99393C53.1395 5.45593 52.9085 5.68693 52.4465 5.68693H48.2045C48.2325 6.56893 48.6315 7.26893 49.4015 7.78693C50.1715 8.30493 51.2915 8.56393 52.7615 8.56393C53.2235 8.56393 53.4545 8.76693 53.4545 9.17293V10.7479C53.4545 11.0279 53.3705 11.2099 53.2025 11.2939C53.0345 11.3639 52.8315 11.3989 52.5935 11.3989C51.1375 11.3989 49.8845 11.1469 48.8345 10.6429C47.7985 10.1389 47.0705 9.46693 46.6505 8.62693C46.4405 9.04693 46.1465 9.43193 45.7685 9.78193C45.4045 10.1179 44.9705 10.4049 44.4665 10.6429C43.9625 10.8809 43.3955 11.0699 42.7655 11.2099C42.1355 11.3359 41.4565 11.3989 40.7285 11.3989C40.4905 11.3989 40.2875 11.3639 40.1195 11.2939C39.9515 11.2099 39.8675 11.0279 39.8675 10.7479V9.17293C39.8675 8.76693 40.0985 8.56393 40.5605 8.56393C42.0445 8.56393 43.1715 8.30493 43.9415 7.78693C44.7255 7.26893 45.1315 6.56893 45.1595 5.68693H40.8755C40.4135 5.68693 40.1825 5.45593 40.1825 4.99393V3.54493C40.1825 3.08293 40.4135 2.85193 40.8755 2.85193H45.4745C45.2645 2.72593 45.1595 2.52293 45.1595 2.24293V1.54992C45.1595 1.11593 45.3765 0.898926 45.8105 0.898926H47.5535C47.9875 0.898926 48.2045 1.11593 48.2045 1.54992V2.38993ZM48.0995 19.3369C48.0995 19.7989 47.8755 20.0299 47.4275 20.0299H45.7475C45.2855 20.0299 45.0545 19.7989 45.0545 19.3369V16.9849C45.0545 16.7609 45.1105 16.5579 45.2225 16.3759C45.3345 16.1939 45.4885 16.0609 45.6845 15.9769C44.3685 15.9629 43.1365 15.9279 41.9885 15.8719C40.8405 15.8159 39.8535 15.7319 39.0275 15.6199C38.5655 15.5639 38.3345 15.3399 38.3345 14.9479V13.3939C38.3345 13.1699 38.3905 13.0019 38.5025 12.8899C38.6285 12.7779 38.8035 12.7359 39.0275 12.7639C39.9375 12.8759 41.0435 12.9669 42.3455 13.0369C43.6615 13.0929 45.0615 13.1209 46.5455 13.1209C47.3715 13.1209 48.1625 13.1139 48.9185 13.0999C49.6885 13.0719 50.4025 13.0439 51.0605 13.0159C51.7185 12.9879 52.3065 12.9529 52.8245 12.9109C53.3565 12.8689 53.7835 12.8199 54.1055 12.7639C54.3295 12.7219 54.5045 12.7639 54.6305 12.8899C54.7565 13.0019 54.8195 13.1699 54.8195 13.3939V14.9479C54.8195 15.3119 54.5885 15.5359 54.1265 15.6199C53.6225 15.7039 52.9085 15.7809 51.9845 15.8509C51.0745 15.9209 50.0805 15.9559 49.0025 15.9559C48.4005 15.9559 48.0995 16.2499 48.0995 16.8379V19.3369Z" fill="#00A63E"/>
<path d="M63.1491 2.49493C63.1491 2.80293 63.3381 2.95693 63.7161 2.95693H65.8161C66.2781 2.95693 66.5091 3.18793 66.5091 3.64993V5.09893C66.5091 5.56093 66.2781 5.79193 65.8161 5.79193H63.2541V6.54793C63.2541 7.55593 63.5271 8.33993 64.0731 8.89993C64.6191 9.44593 65.3191 9.71893 66.1731 9.71893C66.6071 9.71893 66.8241 9.92193 66.8241 10.3279V11.9029C66.8241 12.3369 66.6071 12.5539 66.1731 12.5539C65.6551 12.5539 65.1581 12.4979 64.6821 12.3859C64.2201 12.2599 63.7931 12.0849 63.4011 11.8609C63.0231 11.6369 62.6871 11.3569 62.3931 11.0209C62.1131 10.6709 61.9031 10.2789 61.7631 9.84493C61.4691 10.7269 60.9091 11.3989 60.0831 11.8609C59.2711 12.3229 58.3401 12.5539 57.2901 12.5539C56.8281 12.5539 56.5971 12.3369 56.5971 11.9029V10.3279C56.5971 9.92193 56.8281 9.71893 57.2901 9.71893C58.1441 9.71893 58.8441 9.44593 59.3901 8.89993C59.9361 8.33993 60.2091 7.55593 60.2091 6.54793V5.79193H57.3951C56.9331 5.79193 56.7021 5.56093 56.7021 5.09893V3.64993C56.7021 3.18793 56.9331 2.95693 57.3951 2.95693H60.4191C60.2091 2.83093 60.1041 2.62793 60.1041 2.34793V1.67593C60.1041 1.24193 60.3211 1.02493 60.7551 1.02493H62.4981C62.9321 1.02493 63.1491 1.24193 63.1491 1.67593V2.49493ZM63.5481 21.0799C61.9381 21.0799 60.6921 20.7159 59.8101 19.9879C58.9421 19.2739 58.5081 18.2519 58.5081 16.9219C58.5081 16.3899 58.5221 15.9839 58.5501 15.7039C58.5781 15.4099 58.6061 15.1369 58.6341 14.8849C58.6621 14.6609 58.7251 14.4929 58.8231 14.3809C58.9351 14.2549 59.1031 14.1919 59.3271 14.1919H60.9861C61.2101 14.1919 61.3851 14.2549 61.5111 14.3809C61.6511 14.4929 61.7071 14.6609 61.6791 14.8849C61.6371 15.2069 61.6021 15.4799 61.5741 15.7039C61.5601 15.9279 61.5531 16.1799 61.5531 16.4599C61.5531 17.6499 62.3441 18.2449 63.9261 18.2449C65.3541 18.2449 66.7401 18.2099 68.0841 18.1399C69.4421 18.0699 70.6811 17.9789 71.8011 17.8669C72.0111 17.8389 72.1651 17.8879 72.2631 18.0139C72.3751 18.1399 72.4381 18.3079 72.4521 18.5179L72.5571 20.0509C72.5711 20.4429 72.3541 20.6599 71.9061 20.7019C70.8561 20.8139 69.6591 20.9049 68.3151 20.9749C66.9851 21.0449 65.3961 21.0799 63.5481 21.0799ZM68.9451 8.52193C68.7211 8.89993 68.3221 9.08893 67.7481 9.08893H66.8451C66.4111 9.08893 66.1941 8.87193 66.1941 8.43793V6.90493C66.1941 6.47093 66.4111 6.25393 66.8451 6.25393H67.8321C68.5741 6.25393 68.9451 5.90393 68.9451 5.20393V2.64193C68.9451 2.17993 69.1761 1.94893 69.6381 1.94893H71.2971C71.7591 1.94893 71.9901 2.17993 71.9901 2.64193V13.9819C71.9901 14.4439 71.7591 14.6749 71.2971 14.6749H69.6381C69.1761 14.6749 68.9451 14.4439 68.9451 13.9819V8.52193Z" fill="#00A63E"/>
</svg>
