<svg width="12" height="13" viewBox="0 0 12 13" fill="none" xmlns="http://www.w3.org/2000/svg">
<g clip-path="url(#clip0_97_8873)">
<g clip-path="url(#clip1_97_8873)">
<path fill-rule="evenodd" clip-rule="evenodd" d="M4.14082 1.77003C3.99601 1.63216 3.76849 1.63216 3.62368 1.77003L0.866429 4.39503C0.792081 4.46581 0.75 4.56397 0.75 4.66663V11.7916C0.75 11.9987 0.917893 12.1666 1.125 12.1666H3.13225V10.6666C3.13225 10.2524 3.46804 9.91663 3.88225 9.91663C4.29647 9.91663 4.63225 10.2524 4.63225 10.6666V12.1666H6.63949C6.84661 12.1666 7.01449 11.9987 7.01449 11.7916V4.66663C7.01449 4.56397 6.97242 4.46581 6.89807 4.39503L4.14082 1.77003ZM8.07646 6.54163C8.07646 6.33452 8.24435 6.16663 8.45145 6.16663H10.875C11.0821 6.16663 11.25 6.33452 11.25 6.54163V11.7916C11.25 11.9987 11.0821 12.1666 10.875 12.1666H8.45145C8.24435 12.1666 8.07646 11.9987 8.07646 11.7916V6.54163ZM2.37952 7.48886C2.37952 7.22998 2.58939 7.02011 2.84827 7.02011H4.91621C5.1751 7.02011 5.38496 7.22998 5.38496 7.48886C5.38496 7.74775 5.1751 7.95761 4.91621 7.95761H2.84827C2.58939 7.95761 2.37952 7.74775 2.37952 7.48886ZM2.84827 5.0646C2.58939 5.0646 2.37952 5.27446 2.37952 5.53335C2.37952 5.79223 2.58939 6.0021 2.84827 6.0021H4.91621C5.1751 6.0021 5.38496 5.79223 5.38496 5.53335C5.38496 5.27446 5.1751 5.0646 4.91621 5.0646H2.84827Z" fill="#525252"/>
</g>
</g>
<defs>
<clipPath id="clip0_97_8873">
<rect width="12" height="12" fill="white" transform="translate(0 0.916626)"/>
</clipPath>
<clipPath id="clip1_97_8873">
<rect width="10.5" height="10.5" fill="white" transform="translate(0.75 1.66663)"/>
</clipPath>
</defs>
</svg>
