<svg width="12" height="13" viewBox="0 0 12 13" fill="none" xmlns="http://www.w3.org/2000/svg">
<path d="M1.28551 3.48812C1.5222 3.48812 1.71408 3.29624 1.71408 3.05955C1.71408 2.82286 1.5222 2.63098 1.28551 2.63098C1.04881 2.63098 0.856934 2.82286 0.856934 3.05955C0.856934 3.29624 1.04881 3.48812 1.28551 3.48812Z" fill="#525252" stroke="#525252" stroke-linecap="round" stroke-linejoin="round"/>
<path d="M4.28516 2.91663H11.2852" stroke="#525252" stroke-linecap="round" stroke-linejoin="round"/>
<path d="M1.28551 7.3453C1.5222 7.3453 1.71408 7.15342 1.71408 6.91673C1.71408 6.68004 1.5222 6.48816 1.28551 6.48816C1.04881 6.48816 0.856934 6.68004 0.856934 6.91673C0.856934 7.15342 1.04881 7.3453 1.28551 7.3453Z" fill="#525252" stroke="#525252" stroke-linecap="round" stroke-linejoin="round"/>
<path d="M4.28516 6.91663H11.2852" stroke="#525252" stroke-linecap="round" stroke-linejoin="round"/>
<path d="M1.28551 11.2022C1.5222 11.2022 1.71408 11.0103 1.71408 10.7737C1.71408 10.537 1.5222 10.3451 1.28551 10.3451C1.04881 10.3451 0.856934 10.537 0.856934 10.7737C0.856934 11.0103 1.04881 11.2022 1.28551 11.2022Z" fill="#525252" stroke="#525252" stroke-linecap="round" stroke-linejoin="round"/>
<path d="M4.28516 10.9166H11.2852" stroke="#525252" stroke-linecap="round" stroke-linejoin="round"/>
</svg>
