<svg width="13" height="12" viewBox="0 0 13 12" fill="none" xmlns="http://www.w3.org/2000/svg">
<g clip-path="url(#clip0_468_12447)">
<path d="M1.78551 2.57125C2.0222 2.57125 2.21408 2.37937 2.21408 2.14268C2.21408 1.90599 2.0222 1.71411 1.78551 1.71411C1.54881 1.71411 1.35693 1.90599 1.35693 2.14268C1.35693 2.37937 1.54881 2.57125 1.78551 2.57125Z" fill="white" stroke="white" stroke-linecap="round" stroke-linejoin="round"/>
<path d="M4.78516 1.99976H11.7852" stroke="white" stroke-linecap="round" stroke-linejoin="round"/>
<path d="M1.78551 6.42843C2.0222 6.42843 2.21408 6.23655 2.21408 5.99986C2.21408 5.76317 2.0222 5.57129 1.78551 5.57129C1.54881 5.57129 1.35693 5.76317 1.35693 5.99986C1.35693 6.23655 1.54881 6.42843 1.78551 6.42843Z" fill="white" stroke="white" stroke-linecap="round" stroke-linejoin="round"/>
<path d="M4.78516 5.99976H11.7852" stroke="white" stroke-linecap="round" stroke-linejoin="round"/>
<path d="M1.78551 10.2854C2.0222 10.2854 2.21408 10.0935 2.21408 9.85679C2.21408 9.62014 2.0222 9.42822 1.78551 9.42822C1.54881 9.42822 1.35693 9.62014 1.35693 9.85679C1.35693 10.0935 1.54881 10.2854 1.78551 10.2854Z" fill="white" stroke="white" stroke-linecap="round" stroke-linejoin="round"/>
<path d="M4.78516 9.99976H11.7852" stroke="white" stroke-linecap="round" stroke-linejoin="round"/>
</g>
<defs>
<clipPath id="clip0_468_12447">
<rect width="12" height="11.9998" fill="white" transform="translate(0.5)"/>
</clipPath>
</defs>
</svg>
