<svg width="12" height="13" viewBox="0 0 12 13" fill="none" xmlns="http://www.w3.org/2000/svg">
<path fill-rule="evenodd" clip-rule="evenodd" d="M1.5 2.91663C1.5 2.64048 1.72386 2.41663 2 2.41663H8C8.27614 2.41663 8.5 2.64048 8.5 2.91663V3.41663H9C9.82843 3.41663 10.5 4.0882 10.5 4.91663V5.91663C10.5 6.74505 9.82843 7.41663 9 7.41663H8.32929C7.91746 8.58182 6.80622 9.41663 5.5 9.41663H4.5C2.84315 9.41663 1.5 8.07348 1.5 6.41663V2.91663ZM8.5 4.41663V6.41663H9C9.27614 6.41663 9.5 6.19277 9.5 5.91663V4.91663C9.5 4.64048 9.27614 4.41663 9 4.41663H8.5Z" fill="#525252"/>
<path d="M1 10.9166C1 10.6405 1.22386 10.4166 1.5 10.4166H10.5C10.7761 10.4166 11 10.6405 11 10.9166C11 11.1928 10.7761 11.4166 10.5 11.4166H1.5C1.22386 11.4166 1 11.1928 1 10.9166Z" fill="#525252"/>
</svg>
