<svg width="12" height="13" viewBox="0 0 12 13" fill="none" xmlns="http://www.w3.org/2000/svg">
<g clip-path="url(#clip0_168_14217)">
<path d="M5.1431 8.84931C5.1431 8.84931 4.51031 8.7185 4.25142 8.84931C4.05864 8.94657 3.31252 9.24328 2.94446 9.38855V12.1155C3.15752 12.102 3.58141 12.0771 3.76253 12.0851C4.30225 12.1094 4.70531 12.2513 5.11282 12.3947C5.4931 12.5286 5.87727 12.664 6.3795 12.7062C6.50616 12.7167 6.62894 12.7305 6.74811 12.7437C7.17867 12.7918 7.55978 12.8342 7.87534 12.7062C8.27813 12.5428 10.5787 11.3008 10.8662 10.974C11.1537 10.6471 11.0101 9.76436 10.1184 9.9278C9.67869 10.0084 9.16841 10.2405 8.70619 10.4507C8.23118 10.6665 7.80645 10.8598 7.55895 10.8432C7.07006 10.8105 5.7756 10.5489 5.7756 10.5489L7.26173 10.5689C7.26173 10.5689 7.47173 10.5812 7.76007 10.3528C8.04896 10.1245 8.30674 9.47042 7.87534 9.47042C7.44395 9.47042 6.98367 9.30668 6.98367 9.30668L5.1431 8.84931ZM1 9.09892C1 9.01729 1.02927 8.93901 1.08136 8.88129C1.13345 8.82356 1.20411 8.79114 1.27778 8.79114H2.11112C2.18479 8.79114 2.25545 8.82356 2.30754 8.88129C2.35964 8.93901 2.3889 9.01729 2.3889 9.09892V12.4834C2.3889 12.565 2.35964 12.6433 2.30754 12.701C2.25545 12.7587 2.18479 12.7911 2.11112 12.7911H1.27778C1.20411 12.7911 1.13345 12.7587 1.08136 12.701C1.02927 12.6433 1 12.565 1 12.4834V9.09892Z" fill="#525252"/>
<path d="M9.01044 1.87458C9.20709 1.79255 9.41841 1.7503 9.63188 1.75035C9.84536 1.7503 10.0567 1.79255 10.2533 1.87458C10.45 1.95662 10.628 2.07678 10.7767 2.22795C11.0803 2.53744 11.25 2.95139 11.25 3.38224C11.25 3.81309 11.0803 4.22705 10.7767 4.53654L8.2512 7.08333L5.72325 4.53654C5.41972 4.22705 5.25 3.81309 5.25 3.38224C5.25 2.95139 5.41972 2.53744 5.72325 2.22795C5.87201 2.07671 6.04999 1.95649 6.24664 1.8744C6.44329 1.7923 6.65462 1.75 6.86812 1.75C7.08162 1.75 7.29295 1.7923 7.4896 1.8744C7.68625 1.95649 7.86422 2.07671 8.01299 2.22795L8.2512 2.46793L8.48701 2.22795C8.6358 2.07678 8.81379 1.95662 9.01044 1.87458Z" fill="#525252"/>
</g>
<defs>
<clipPath id="clip0_168_14217">
<rect width="12" height="12" fill="white" transform="translate(0 0.916626)"/>
</clipPath>
</defs>
</svg>
