<svg width="12" height="12" viewBox="0 0 12 12" fill="none" xmlns="http://www.w3.org/2000/svg">
<path d="M6 1C8.76142 1 11 3.23858 11 6C11 8.76142 8.76142 11 6 11C3.23858 11 1 8.76142 1 6C1 3.23858 3.23858 1 6 1ZM6 2.50098C5.72455 2.50098 5.50098 2.72455 5.50098 3V6C5.50098 6.18891 5.60838 6.3618 5.77734 6.44629L7.77734 7.44629C8.02364 7.56917 8.32317 7.4689 8.44629 7.22266C8.56917 6.97636 8.4689 6.67683 8.22266 6.55371L6.49902 5.69141V3C6.49902 2.72455 6.27545 2.50098 6 2.50098Z" fill="#D4D4D4"/>
</svg>
