<svg width="12" height="13" viewBox="0 0 12 13" fill="none" xmlns="http://www.w3.org/2000/svg">
<path d="M6 1.91663C8.76142 1.91663 11 4.1552 11 6.91663C11 9.67805 8.76142 11.9166 6 11.9166C3.23858 11.9166 1 9.67805 1 6.91663C1 4.1552 3.23858 1.91663 6 1.91663ZM6 3.4176C5.72455 3.4176 5.50098 3.64117 5.50098 3.91663V6.91663C5.50098 7.10554 5.60838 7.27843 5.77734 7.36292L7.77734 8.36292C8.02364 8.4858 8.32317 8.38552 8.44629 8.13928C8.56917 7.89298 8.4689 7.59346 8.22266 7.47034L6.49902 6.60803V3.91663C6.49902 3.64117 6.27545 3.4176 6 3.4176Z" fill="#525252"/>
</svg>
