<svg width="12" height="13" viewBox="0 0 12 13" fill="none" xmlns="http://www.w3.org/2000/svg">
<path d="M3.90234 8.426C3.99931 8.40673 4.10045 8.41746 4.1918 8.4553C4.28288 8.49318 4.36082 8.55726 4.41563 8.63928C4.47047 8.72146 4.5 8.81821 4.5 8.91702C4.49993 9.04938 4.44703 9.17607 4.35352 9.26975C4.25975 9.36352 4.13222 9.41624 3.99961 9.41624C3.90085 9.41618 3.804 9.38788 3.72188 9.33303C3.63965 9.27809 3.57574 9.1994 3.53789 9.10803C3.50013 9.01683 3.4906 8.91657 3.50977 8.81975C3.52906 8.72276 3.57695 8.63304 3.64688 8.56311C3.71676 8.49335 3.8055 8.44527 3.90234 8.426Z" fill="#525252"/>
<path d="M5.40234 8.426C5.49932 8.40672 5.60044 8.41746 5.6918 8.4553C5.78289 8.49318 5.86081 8.55725 5.91563 8.63928C5.97048 8.72146 6 8.81821 6 8.91702C5.99993 9.04939 5.94704 9.17607 5.85352 9.26975C5.75975 9.36352 5.63222 9.41624 5.49961 9.41624C5.40086 9.41617 5.304 9.38788 5.22188 9.33303C5.13965 9.27809 5.07574 9.1994 5.03789 9.10803C5.00014 9.01684 4.99061 8.91657 5.00977 8.81975C5.02906 8.72276 5.07695 8.63304 5.14688 8.56311C5.21676 8.49334 5.30549 8.44527 5.40234 8.426Z" fill="#525252"/>
<path d="M5.15039 7.98303C4.99601 8.04135 4.85777 8.1373 4.74961 8.26194C4.64149 8.13744 4.50426 8.0413 4.35 7.98303L4.74961 7.05139L5.15039 7.98303Z" fill="#525252"/>
<path fill-rule="evenodd" clip-rule="evenodd" d="M6 0.916626C9.31371 0.916626 12 3.60292 12 6.91663C12 10.2303 9.31371 12.9166 6 12.9166C2.68629 12.9166 0 10.2303 0 6.91663C0 3.60292 2.68629 0.916626 6 0.916626ZM7.74961 3.91663C7.55102 3.91672 7.36045 3.99546 7.21992 4.13577C7.07927 4.27642 6.99961 4.46772 6.99961 4.66663V9.91663H7.5V7.41702H9V6.91663H7.5V6.41624H9V5.91702H7.5V5.41663H9V4.91624H7.5V4.66663C7.5 4.60041 7.52588 4.53654 7.57266 4.48967C7.61946 4.44287 7.68343 4.41711 7.74961 4.41702H9V3.91663H7.74961ZM3.75 3.91663C3.74943 4.44524 3.85646 4.96849 4.06523 5.45413L4.47773 6.41624L3.82734 7.93381C3.67016 7.96098 3.52203 8.02612 3.39492 8.12249C3.26768 8.21905 3.16462 8.34499 3.09609 8.48928C3.02765 8.6335 2.99561 8.79263 3.00117 8.95217C3.00681 9.11164 3.05058 9.26784 3.12891 9.40686C3.20729 9.54581 3.31768 9.66403 3.45117 9.75139C3.58483 9.83886 3.73757 9.89344 3.89648 9.9096C4.05531 9.92572 4.21562 9.90271 4.36406 9.84397C4.51258 9.78517 4.64481 9.69147 4.74961 9.57092C4.88254 9.72515 5.05979 9.83563 5.25703 9.88616C5.45425 9.93667 5.66283 9.92466 5.85352 9.85334C6.04396 9.78198 6.20789 9.65392 6.32344 9.48655C6.439 9.3191 6.50124 9.12047 6.50039 8.91702C6.49978 8.6821 6.41621 8.45448 6.26484 8.27483C6.11344 8.09517 5.90332 7.97422 5.67188 7.93381L5.02148 6.41624L5.43398 5.45413C5.64281 4.96843 5.75096 4.44531 5.75039 3.91663H5.25C5.25064 4.37762 5.1566 4.83371 4.97461 5.25725C4.79773 5.66881 4.75206 5.77647 4.74961 5.78225L4.52461 5.25725C4.34267 4.83377 4.24975 4.37754 4.25039 3.91663H3.75Z" fill="#525252"/>
</svg>
