<svg width="12" height="13" viewBox="0 0 12 13" fill="none" xmlns="http://www.w3.org/2000/svg">
<path d="M6 5.98694C8.04041 5.98694 9.06055 8.15035 9.06055 9.55823C9.06038 10.966 7.40781 11.5983 6 11.5983C4.5922 11.5982 2.93962 10.9659 2.93945 9.55823C2.93945 8.15036 3.95964 5.98698 6 5.98694ZM1.90918 5.48694C2.47239 5.48719 2.92857 6.17238 2.92871 7.01721C2.92871 7.86223 2.47248 8.54724 1.90918 8.54749C1.34574 8.54749 0.888672 7.86238 0.888672 7.01721C0.888815 6.17223 1.34583 5.48694 1.90918 5.48694ZM10.0918 5.48694C10.655 5.48719 11.1112 6.17238 11.1113 7.01721C11.1113 7.86223 10.6551 8.54724 10.0918 8.54749C9.52834 8.54749 9.07129 7.86238 9.07129 7.01721C9.07143 6.17223 9.52843 5.48694 10.0918 5.48694ZM4.24512 1.91663C4.93246 1.91687 5.48925 2.75274 5.48926 3.78381C5.48926 4.8149 4.93246 5.65075 4.24512 5.651C3.55763 5.651 3 4.81505 3 3.78381C3.00001 2.75259 3.55764 1.91663 4.24512 1.91663ZM7.75586 1.91663C8.44326 1.91682 9.00093 2.7527 9.00098 3.78381C9.00098 4.81498 8.44329 5.6508 7.75586 5.651C7.06834 5.651 6.51074 4.8151 6.51074 3.78381C6.51079 2.75258 7.06837 1.91663 7.75586 1.91663Z" fill="#525252"/>
</svg>
