<svg width="12" height="13" viewBox="0 0 12 13" fill="none" xmlns="http://www.w3.org/2000/svg">
<g clip-path="url(#clip0_79_19703)">
<path d="M7.42836 2.6738C7.42836 2.45289 7.24928 2.2738 7.02836 2.2738H4.97122C4.75031 2.2738 4.57122 2.45289 4.57122 2.6738V5.08809C4.57122 5.309 4.39213 5.48809 4.17122 5.48809H1.75693C1.53602 5.48809 1.35693 5.66718 1.35693 5.88809V7.94523C1.35693 8.16615 1.53602 8.34523 1.75693 8.34523H4.17122C4.39213 8.34523 4.57122 8.52432 4.57122 8.74523V11.1595C4.57122 11.3804 4.75031 11.5595 4.97122 11.5595H7.02836C7.24928 11.5595 7.42836 11.3804 7.42836 11.1595V8.74523C7.42836 8.52432 7.60745 8.34523 7.82836 8.34523H10.2426C10.4636 8.34523 10.6426 8.16615 10.6426 7.94523V5.88809C10.6426 5.66718 10.4636 5.48809 10.2426 5.48809H7.82836C7.60745 5.48809 7.42836 5.309 7.42836 5.08809V2.6738Z" fill="#525252"/>
</g>
<defs>
<clipPath id="clip0_79_19703">
<rect width="10" height="10" fill="white" transform="translate(1 1.91663)"/>
</clipPath>
</defs>
</svg>
