<svg width="12" height="13" viewBox="0 0 12 13" fill="none" xmlns="http://www.w3.org/2000/svg">
<path d="M9.54709 5.23732L5.64084 2.32226C5.33574 2.0949 4.97473 1.95795 4.59783 1.9266C4.22093 1.89526 3.84287 1.97073 3.50554 2.14467C3.16821 2.31861 2.8848 2.58421 2.68671 2.91203C2.48863 3.23985 2.38361 3.6171 2.3833 4.00194V9.83497C2.38271 10.2202 2.48718 10.598 2.68508 10.9264C2.88297 11.2548 3.16653 11.5208 3.50419 11.695C3.84185 11.8691 4.22036 11.9444 4.59759 11.9126C4.97482 11.8807 5.33597 11.743 5.64084 11.5147L9.54709 8.5996C9.80629 8.40602 10.0171 8.15305 10.1623 7.86116C10.3076 7.56928 10.3833 7.24669 10.3833 6.9195C10.3833 6.59231 10.3076 6.26972 10.1623 5.97784C10.0171 5.68595 9.80629 5.43298 9.54709 5.2394V5.23732Z" fill="#525252"/>
</svg>
