<svg width="12" height="13" viewBox="0 0 12 13" fill="none" xmlns="http://www.w3.org/2000/svg">
<g clip-path="url(#clip0_79_19680)">
<path fill-rule="evenodd" clip-rule="evenodd" d="M6 12.9166C9.31371 12.9166 12 10.2303 12 6.91663C12 3.60292 9.31371 0.916626 6 0.916626C2.68629 0.916626 0 3.60292 0 6.91663C0 10.2303 2.68629 12.9166 6 12.9166ZM3.9 4.36663C3.9 4.1181 3.69853 3.91663 3.45 3.91663C3.20147 3.91663 3 4.1181 3 4.36663V5.56663C3 6.14653 3.4701 6.61663 4.05 6.61663H4.2V9.46663C4.2 9.71515 4.40147 9.91663 4.65 9.91663C4.89853 9.91663 5.1 9.71515 5.1 9.46663V6.61663H5.25C5.8299 6.61663 6.3 6.14653 6.3 5.56663V4.36663C6.3 4.1181 6.09853 3.91663 5.85 3.91663C5.60147 3.91663 5.4 4.1181 5.4 4.36663V5.56663C5.4 5.64947 5.33284 5.71663 5.25 5.71663H5.1V4.36663C5.1 4.1181 4.89853 3.91663 4.65 3.91663C4.40147 3.91663 4.2 4.1181 4.2 4.36663V5.71663H4.05C3.96716 5.71663 3.9 5.64947 3.9 5.56663V4.36663ZM7.8 7.51663H7.43246C7.02292 7.51663 6.73374 7.11541 6.86325 6.72689L7.63831 4.40171C7.72022 4.15595 7.89543 3.97974 8.13313 3.93195C8.1704 3.92196 8.20958 3.91663 8.25 3.91663C8.49853 3.91663 8.7 4.1181 8.7 4.36663V9.46663C8.7 9.71515 8.49853 9.91663 8.25 9.91663C8.00147 9.91663 7.8 9.71515 7.8 9.46663V7.51663Z" fill="#525252"/>
</g>
<defs>
<clipPath id="clip0_79_19680">
<rect width="12" height="12" fill="white" transform="translate(0 0.916626)"/>
</clipPath>
</defs>
</svg>
