<svg width="12" height="12" viewBox="0 0 12 12" fill="none" xmlns="http://www.w3.org/2000/svg">
<g clip-path="url(#clip0_1158_13973)">
<path fill-rule="evenodd" clip-rule="evenodd" d="M7.36425 1.39734C7.81725 1.46359 8.24625 1.67559 8.6085 2.00834C8.65525 1.58059 8.49 1.17709 8.15975 0.986593C8.07432 0.936512 8.01217 0.854673 7.98686 0.758937C7.96155 0.663202 7.97513 0.56134 8.02465 0.475583C8.07416 0.389825 8.15559 0.327133 8.25115 0.301187C8.34672 0.275242 8.44867 0.288149 8.53475 0.337093C9.301 0.779593 9.493 1.66984 9.28475 2.43134C10.4423 2.67759 11.3748 3.70534 11.3748 4.99984C11.3748 5.0993 11.3352 5.19468 11.2649 5.26501C11.1946 5.33533 11.0992 5.37484 10.9998 5.37484C10.9003 5.37484 10.8049 5.33533 10.7346 5.26501C10.6643 5.19468 10.6248 5.0993 10.6248 4.99984C10.6248 4.22059 10.1467 3.57184 9.49725 3.28434C9.75625 4.02934 9.626 4.89434 9.05975 5.50484C9.02653 5.54195 8.98625 5.57206 8.94126 5.59343C8.89628 5.61479 8.84749 5.62698 8.79774 5.62929C8.74799 5.63159 8.69828 5.62397 8.65151 5.60685C8.60474 5.58974 8.56185 5.56348 8.52534 5.52961C8.48883 5.49574 8.45943 5.45493 8.43886 5.40958C8.41829 5.36422 8.40696 5.31522 8.40553 5.26544C8.4041 5.21566 8.41261 5.16609 8.43054 5.11963C8.44848 5.07317 8.47549 5.03075 8.51 4.99484C8.954 4.51609 8.9905 3.76109 8.6315 3.20609C8.3195 3.34309 8.0025 3.65609 7.728 4.17109C7.45625 4.68034 7.2535 5.34359 7.162 6.09659C6.77803 6.03208 6.38935 5.99972 6 5.99984C5.465 5.99984 4.943 6.05984 4.4485 6.17459C4.7795 4.33709 6.1955 2.87709 8.0095 2.48134C7.77175 2.28959 7.5115 2.17684 7.2555 2.13934C6.838 2.07809 6.39425 2.21034 6.018 2.59484C5.94785 2.66299 5.85386 2.70104 5.75606 2.70088C5.65826 2.70072 5.56439 2.66235 5.49448 2.59397C5.42456 2.52558 5.38413 2.43259 5.38179 2.33482C5.37946 2.23705 5.41542 2.14223 5.482 2.07059C6.017 1.52334 6.697 1.29934 7.36425 1.39734ZM9.222 7.57234C8.38225 6.97934 7.242 6.62484 6 6.62484C4.758 6.62484 3.618 6.97959 2.7785 7.57234C1.95075 8.15659 1.3895 8.99484 1.37525 9.96209C1.40858 9.94359 1.44133 9.92343 1.4735 9.90159C1.77697 9.6976 2.13434 9.58865 2.5 9.58865C2.86566 9.58865 3.22303 9.6976 3.5265 9.90159C3.7398 10.0469 3.99191 10.1246 4.25 10.1246C4.50809 10.1246 4.7602 10.0469 4.9735 9.90159C5.27697 9.6976 5.63434 9.58865 6 9.58865C6.36566 9.58865 6.72303 9.6976 7.0265 9.90159C7.2398 10.0469 7.49191 10.1246 7.75 10.1246C8.00809 10.1246 8.2602 10.0469 8.4735 9.90159C8.77697 9.6976 9.13434 9.58865 9.5 9.58865C9.86566 9.58865 10.223 9.6976 10.5265 9.90159C10.5587 9.92326 10.5914 9.94343 10.6248 9.96209C10.6105 8.99509 10.0493 8.15659 9.2215 7.57209M8.89425 10.5221C9.2555 10.2771 9.74425 10.2771 10.1053 10.5221C10.4428 10.7519 10.8417 10.8748 11.25 10.8748C11.3495 10.8748 11.4448 10.9144 11.5152 10.9847C11.5855 11.055 11.625 11.1504 11.625 11.2498C11.625 11.3493 11.5855 11.4447 11.5152 11.515C11.4448 11.5853 11.3495 11.6248 11.25 11.6248H0.75C0.650544 11.6248 0.555161 11.5853 0.484835 11.515C0.414509 11.4447 0.375 11.3493 0.375 11.2498C0.375 11.1504 0.414509 11.055 0.484835 10.9847C0.555161 10.9144 0.650544 10.8748 0.75 10.8748C1.14875 10.8748 1.5475 10.7573 1.8945 10.5223C2.25575 10.2773 2.7445 10.2773 3.1055 10.5223C3.4525 10.7573 3.85125 10.8748 4.25 10.8748C4.64875 10.8748 5.0475 10.7573 5.3945 10.5223C5.75575 10.2773 6.2445 10.2773 6.6055 10.5223C6.9525 10.7573 7.35125 10.8748 7.75 10.8748C8.14875 10.8748 8.5475 10.7573 8.8945 10.5223" fill="#262626"/>
</g>
<defs>
<clipPath id="clip0_1158_13973">
<rect width="12" height="12" fill="white"/>
</clipPath>
</defs>
</svg>
