<svg width="12" height="13" viewBox="0 0 12 13" fill="none" xmlns="http://www.w3.org/2000/svg">
<path d="M6.00049 1.4176C6.19021 1.41771 6.36377 1.52578 6.44775 1.69592L7.87646 4.59045L11.0728 5.05823C11.2604 5.08581 11.4166 5.21765 11.4751 5.39807C11.5334 5.57846 11.4839 5.77647 11.3481 5.90881L9.03564 8.16077L9.58252 11.3424C9.61451 11.5294 9.53673 11.7182 9.3833 11.8297C9.22976 11.9412 9.0259 11.956 8.85791 11.8678L6.00049 10.3649L3.14307 11.8678C2.9751 11.9561 2.77126 11.9412 2.61768 11.8297C2.46412 11.7182 2.38644 11.5295 2.41846 11.3424L2.96436 8.16077L0.652832 5.90881C0.516939 5.77645 0.467489 5.57854 0.525879 5.39807C0.584426 5.21761 0.740506 5.08572 0.928223 5.05823L4.12354 4.59045L5.55322 1.69592C5.63727 1.52576 5.8107 1.4176 6.00049 1.4176Z" fill="#4897F3"/>
</svg>
