<svg width="12" height="14" viewBox="0 0 12 14" fill="none" xmlns="http://www.w3.org/2000/svg">
<path d="M6.17578 0.666626C7.64999 0.666626 8.86695 1.75186 9.08008 3.16663H9.68066C9.81603 3.16663 9.92578 3.27638 9.92578 3.41174V4.42151C9.92578 4.55687 9.81603 4.66663 9.68066 4.66663H9.11621C9.11587 4.85674 9.11364 5.04326 9.1084 5.22522H9.2041C9.32643 5.22522 9.42571 5.32459 9.42578 5.4469V6.50354C9.42578 6.62591 9.32647 6.72522 9.2041 6.72522H8.90332C8.82055 6.9828 8.70669 7.2156 8.54785 7.4176C9.34534 8.09196 9.85248 9.09906 9.85254 10.2252V13.1666H2.5V10.2252C2.50006 9.07028 3.03224 8.0398 3.86523 7.36584C3.71891 7.17601 3.60462 6.96132 3.5166 6.72522H3.14746C3.02515 6.72515 2.92578 6.62586 2.92578 6.50354V5.4469C2.92585 5.32464 3.0252 5.22529 3.14746 5.22522H3.25098C3.24159 5.04325 3.23627 4.85674 3.23535 4.66663H2.6709C2.53564 4.6665 2.42578 4.5568 2.42578 4.42151V3.41174C2.42578 3.27645 2.53564 3.16675 2.6709 3.16663H3.27148C3.48457 1.7519 4.70167 0.666753 6.17578 0.666626ZM6.41406 4.52014C6.35218 4.2726 6.00036 4.2726 5.93848 4.52014L5.25195 7.26428C5.21338 7.41893 5.33083 7.56897 5.49023 7.56897H6.8623C7.02122 7.56845 7.13796 7.41859 7.09961 7.26428L6.41406 4.52014Z" fill="#525252"/>
</svg>
