<svg width="16" height="17" viewBox="0 0 16 17" fill="none" xmlns="http://www.w3.org/2000/svg">
<g clip-path="url(#clip0_168_18466)">
<path d="M6.85714 10.9102C6.85714 10.9102 6.01342 10.7358 5.66823 10.9102C5.4112 11.0399 4.41637 11.4355 3.92563 11.6292V15.2652C4.2097 15.2471 4.77489 15.2139 5.01638 15.2246C5.73601 15.257 6.27343 15.4462 6.81676 15.6374C7.32381 15.8159 7.83603 15.9965 8.50567 16.0527C8.67456 16.0667 8.83827 16.0851 8.99716 16.1028C9.57124 16.1668 10.0794 16.2234 10.5001 16.0527C11.0372 15.8348 14.1046 14.1789 14.4879 13.7431C14.8713 13.3072 14.6798 12.1303 13.4909 12.3482C12.9046 12.4557 12.2242 12.7651 11.6079 13.0454C10.9746 13.3331 10.4083 13.5908 10.0783 13.5687C9.42642 13.5252 7.70048 13.1763 7.70048 13.1763L9.68198 13.203C9.68198 13.203 9.96198 13.2194 10.3464 12.9149C10.7316 12.6104 11.0753 11.7384 10.5001 11.7384C9.92494 11.7384 9.31123 11.52 9.31123 11.52L6.85714 10.9102ZM1.33301 11.243C1.33301 11.1342 1.37203 11.0298 1.44149 10.9528C1.51095 10.8759 1.60515 10.8326 1.70338 10.8326H2.8145C2.91273 10.8326 3.00694 10.8759 3.0764 10.9528C3.14586 11.0298 3.18488 11.1342 3.18488 11.243V15.7556C3.18488 15.8644 3.14586 15.9688 3.0764 16.0458C3.00694 16.1227 2.91273 16.166 2.8145 16.166H1.70338C1.60515 16.166 1.51095 16.1227 1.44149 16.0458C1.37203 15.9688 1.33301 15.8644 1.33301 15.7556V11.243Z" fill="#525252"/>
<path d="M12.0139 1.61051C12.2761 1.50113 12.5579 1.4448 12.8425 1.44486C13.1271 1.4448 13.4089 1.50113 13.6711 1.61051C13.9333 1.71989 14.1706 1.8801 14.369 2.08166C14.7737 2.49431 15 3.04625 15 3.62072C15 4.19519 14.7737 4.74713 14.369 5.15978L11.0016 8.55551L7.631 5.15978C7.22629 4.74713 7 4.19519 7 3.62072C7 3.04625 7.22629 2.49431 7.631 2.08166C7.82935 1.88002 8.06665 1.71972 8.32885 1.61026C8.59105 1.5008 8.87282 1.4444 9.15749 1.4444C9.44216 1.4444 9.72393 1.5008 9.98613 1.61026C10.2483 1.71972 10.4856 1.88002 10.684 2.08166L11.0016 2.40164L11.316 2.08166C11.5144 1.8801 11.7517 1.71989 12.0139 1.61051Z" fill="#525252"/>
</g>
<defs>
<clipPath id="clip0_168_18466">
<rect width="16" height="16" fill="white" transform="translate(0 0.333313)"/>
</clipPath>
</defs>
</svg>
