<svg width="16" height="17" viewBox="0 0 16 17" fill="none" xmlns="http://www.w3.org/2000/svg">
<path d="M7.9999 5.06669C8.33127 5.06669 8.5999 5.33532 8.5999 5.66669V9.00002C8.5999 9.33139 8.33127 9.60002 7.9999 9.60002C7.66853 9.60002 7.3999 9.33139 7.3999 9.00002V5.66669C7.3999 5.33532 7.66853 5.06669 7.9999 5.06669Z" fill="#2B7FFF"/>
<path d="M7.99987 11.6667C8.36806 11.6667 8.66654 11.3682 8.66654 11C8.66654 10.6318 8.36806 10.3333 7.99987 10.3333C7.63168 10.3333 7.3332 10.6318 7.3332 11C7.3332 11.3682 7.63168 11.6667 7.99987 11.6667Z" fill="#2B7FFF"/>
<path fill-rule="evenodd" clip-rule="evenodd" d="M1.3999 8.33334C1.3999 4.68826 4.35482 1.73334 7.9999 1.73334C11.645 1.73334 14.5999 4.68826 14.5999 8.33334C14.5999 11.9784 11.645 14.9333 7.9999 14.9333C4.35482 14.9333 1.3999 11.9784 1.3999 8.33334ZM7.9999 2.93334C5.01756 2.93334 2.5999 5.351 2.5999 8.33334C2.5999 11.3157 5.01756 13.7333 7.9999 13.7333C10.9822 13.7333 13.3999 11.3157 13.3999 8.33334C13.3999 5.351 10.9822 2.93334 7.9999 2.93334Z" fill="#2B7FFF"/>
</svg>
