<svg width="16" height="16" viewBox="0 0 16 16" fill="none" xmlns="http://www.w3.org/2000/svg">
<path d="M7.9999 4.73374C8.33127 4.73374 8.5999 5.00237 8.5999 5.33374V8.66707C8.5999 8.99844 8.33127 9.26707 7.9999 9.26707C7.66853 9.26707 7.3999 8.99844 7.3999 8.66707V5.33374C7.3999 5.00237 7.66853 4.73374 7.9999 4.73374Z" fill="#2B7FFF"/>
<path d="M7.99987 11.3337C8.36806 11.3337 8.66654 11.0352 8.66654 10.6671C8.66654 10.2989 8.36806 10.0004 7.99987 10.0004C7.63168 10.0004 7.3332 10.2989 7.3332 10.6671C7.3332 11.0352 7.63168 11.3337 7.99987 11.3337Z" fill="#2B7FFF"/>
<path fill-rule="evenodd" clip-rule="evenodd" d="M1.3999 8.00039C1.3999 4.35531 4.35482 1.40039 7.9999 1.40039C11.645 1.40039 14.5999 4.35531 14.5999 8.00039C14.5999 11.6455 11.645 14.6004 7.9999 14.6004C4.35482 14.6004 1.3999 11.6455 1.3999 8.00039ZM7.9999 2.60039C5.01756 2.60039 2.5999 5.01805 2.5999 8.00039C2.5999 10.9827 5.01756 13.4004 7.9999 13.4004C10.9822 13.4004 13.3999 10.9827 13.3999 8.00039C13.3999 5.01805 10.9822 2.60039 7.9999 2.60039Z" fill="#2B7FFF"/>
</svg>
