<svg width="14" height="14" viewBox="0 0 14 14" fill="none" xmlns="http://www.w3.org/2000/svg">
<path d="M6.9999 3.73374C7.33127 3.73374 7.5999 4.00237 7.5999 4.33374V7.66707C7.5999 7.99844 7.33127 8.26707 6.9999 8.26707C6.66853 8.26707 6.3999 7.99844 6.3999 7.66707V4.33374C6.3999 4.00237 6.66853 3.73374 6.9999 3.73374Z" fill="#D08700"/>
<path d="M6.99987 10.3337C7.36806 10.3337 7.66654 10.0352 7.66654 9.66706C7.66654 9.29887 7.36806 9.00039 6.99987 9.00039C6.63168 9.00039 6.3332 9.29887 6.3332 9.66706C6.3332 10.0352 6.63168 10.3337 6.99987 10.3337Z" fill="#D08700"/>
<path fill-rule="evenodd" clip-rule="evenodd" d="M0.399902 7.00039C0.399902 3.35531 3.35482 0.400391 6.9999 0.400391C10.645 0.400391 13.5999 3.35531 13.5999 7.00039C13.5999 10.6455 10.645 13.6004 6.9999 13.6004C3.35482 13.6004 0.399902 10.6455 0.399902 7.00039ZM6.9999 1.60039C4.01756 1.60039 1.5999 4.01805 1.5999 7.00039C1.5999 9.98273 4.01756 12.4004 6.9999 12.4004C9.98224 12.4004 12.3999 9.98273 12.3999 7.00039C12.3999 4.01805 9.98224 1.60039 6.9999 1.60039Z" fill="#D08700"/>
</svg>
