<svg width="16" height="17" viewBox="0 0 16 17" fill="none" xmlns="http://www.w3.org/2000/svg">
<path d="M5.20312 10.3458C5.33242 10.3201 5.46727 10.3344 5.58906 10.3849C5.7105 10.4354 5.81442 10.5208 5.8875 10.6302C5.96063 10.7398 6 10.8688 6 11.0005C5.9999 11.177 5.92937 11.3459 5.80469 11.4708C5.67966 11.5958 5.50963 11.6661 5.33281 11.6661C5.20114 11.6661 5.07201 11.6283 4.9625 11.5552C4.85286 11.4819 4.76765 11.377 4.71719 11.2552C4.66684 11.1336 4.65414 10.9999 4.67969 10.8708C4.70541 10.7415 4.76926 10.6219 4.8625 10.5286C4.95567 10.4356 5.074 10.3715 5.20312 10.3458Z" fill="#525252"/>
<path d="M7.20312 10.3458C7.33243 10.3201 7.46726 10.3344 7.58906 10.3849C7.71052 10.4354 7.81441 10.5208 7.8875 10.6302C7.96064 10.7398 8 10.8688 8 11.0005C7.9999 11.177 7.92938 11.3459 7.80469 11.4708C7.67966 11.5958 7.50963 11.6661 7.33281 11.6661C7.20114 11.666 7.072 11.6283 6.9625 11.5552C6.85286 11.4819 6.76765 11.377 6.71719 11.2552C6.66685 11.1336 6.65414 10.9999 6.67969 10.8708C6.70541 10.7415 6.76926 10.6219 6.8625 10.5286C6.95568 10.4356 7.07398 10.3715 7.20312 10.3458Z" fill="#525252"/>
<path d="M6.86719 9.75519C6.66135 9.83294 6.47703 9.96088 6.33281 10.1271C6.18865 9.96107 6.00568 9.83288 5.8 9.75519L6.33281 8.513L6.86719 9.75519Z" fill="#525252"/>
<path fill-rule="evenodd" clip-rule="evenodd" d="M8 0.333313C12.4183 0.333313 16 3.91504 16 8.33331C16 12.7516 12.4183 16.3333 8 16.3333C3.58172 16.3333 0 12.7516 0 8.33331C0 3.91504 3.58172 0.333313 8 0.333313ZM10.3328 4.33331C10.068 4.33344 9.81394 4.43842 9.62656 4.6255C9.43903 4.81304 9.33282 5.0681 9.33281 5.33331V12.3333H10V9.0005H12V8.33331H10V7.66613H12V7.0005H10V6.33331H12V5.66613H10V5.33331C10 5.24502 10.0345 5.15986 10.0969 5.09738C10.1593 5.03498 10.2446 5.00063 10.3328 5.0005H12V4.33331H10.3328ZM5 4.33331C4.99924 5.03813 5.14195 5.7358 5.42031 6.38331L5.97031 7.66613L5.10313 9.68956C4.89355 9.72579 4.69604 9.81263 4.52656 9.94113C4.3569 10.0699 4.2195 10.2378 4.12813 10.4302C4.03687 10.6225 3.99415 10.8347 4.00156 11.0474C4.00908 11.26 4.06744 11.4683 4.17188 11.6536C4.27639 11.8389 4.42357 11.9965 4.60156 12.113C4.77977 12.2296 4.98343 12.3024 5.19531 12.3239C5.40708 12.3454 5.62082 12.3148 5.81875 12.2364C6.01678 12.158 6.19308 12.0331 6.33281 11.8724C6.51005 12.078 6.74639 12.2253 7.00938 12.2927C7.27234 12.36 7.55044 12.344 7.80469 12.2489C8.05861 12.1538 8.27718 11.983 8.43125 11.7599C8.58533 11.5366 8.66832 11.2718 8.66719 11.0005C8.66637 10.6873 8.55495 10.3838 8.35313 10.1443C8.15125 9.90471 7.8711 9.74344 7.5625 9.68956L6.69531 7.66613L7.24531 6.38331C7.52375 5.73572 7.66795 5.03823 7.66719 4.33331H7C7.00085 4.94797 6.87547 5.55609 6.63281 6.12081C6.39697 6.66956 6.33608 6.81311 6.33281 6.82081L6.03281 6.12081C5.79023 5.55617 5.66634 4.94787 5.66719 4.33331H5Z" fill="#525252"/>
</svg>
