<svg width="16" height="17" viewBox="0 0 16 17" fill="none" xmlns="http://www.w3.org/2000/svg">
<path d="M8.00098 7.42743C10.7212 7.4276 12.0819 10.311 12.082 12.1882C12.082 14.0653 9.8781 14.9088 8.00098 14.9089C6.1238 14.9089 3.91992 14.0653 3.91992 12.1882C3.92005 10.311 5.28056 7.42743 8.00098 7.42743ZM2.5459 6.76044C3.29711 6.7605 3.90625 7.6746 3.90625 8.80145C3.90616 9.92819 3.29706 10.8414 2.5459 10.8415C1.7947 10.8415 1.18563 9.92823 1.18555 8.80145C1.18555 7.67456 1.79464 6.76044 2.5459 6.76044ZM13.4551 6.76044C14.2063 6.7605 14.8154 7.6746 14.8154 8.80145C14.8153 9.92819 14.2063 10.8414 13.4551 10.8415C12.7039 10.8415 12.0948 9.92823 12.0947 8.80145C12.0947 7.67456 12.7038 6.76044 13.4551 6.76044ZM5.66016 1.99969C6.57662 2.00002 7.31934 3.11515 7.31934 4.48993C7.31923 5.86457 6.57655 6.97886 5.66016 6.97919C4.74358 6.97919 4.00011 5.86478 4 4.48993C4 3.11494 4.74351 1.99969 5.66016 1.99969ZM10.3408 1.99969C11.2574 1.99996 12 3.11504 12 4.48993C11.9999 5.86474 11.2574 6.97892 10.3408 6.97919C9.42417 6.97919 8.68073 5.8649 8.68066 4.48993C8.68066 3.11488 9.42413 1.99969 10.3408 1.99969Z" fill="#525252"/>
</svg>
