<svg width="16" height="17" viewBox="0 0 16 17" fill="none" xmlns="http://www.w3.org/2000/svg">
<g clip-path="url(#clip0_168_16787)">
<path d="M9.90481 2.67615C9.90481 2.3816 9.66603 2.14282 9.37147 2.14282H6.62862C6.33407 2.14282 6.09528 2.3816 6.09528 2.67616V5.8952C6.09528 6.18976 5.8565 6.42854 5.56195 6.42854H2.3429C2.04835 6.42854 1.80957 6.66732 1.80957 6.96187V9.70473C1.80957 9.99928 2.04835 10.2381 2.3429 10.2381H5.56195C5.8565 10.2381 6.09528 10.4768 6.09528 10.7714V13.9904C6.09528 14.285 6.33407 14.5238 6.62862 14.5238H9.37147C9.66603 14.5238 9.90481 14.285 9.90481 13.9904V10.7714C9.90481 10.4768 10.1436 10.2381 10.4381 10.2381H13.6572C13.9517 10.2381 14.1905 9.99928 14.1905 9.70473V6.96187C14.1905 6.66732 13.9517 6.42854 13.6572 6.42854H10.4381C10.1436 6.42854 9.90481 6.18975 9.90481 5.8952V2.67615Z" fill="#525252"/>
</g>
<defs>
<clipPath id="clip0_168_16787">
<rect width="13.3333" height="13.3333" fill="white" transform="translate(1.33301 1.66669)"/>
</clipPath>
</defs>
</svg>
