<svg width="16" height="17" viewBox="0 0 16 17" fill="none" xmlns="http://www.w3.org/2000/svg">
<path fill-rule="evenodd" clip-rule="evenodd" d="M13.7682 0.387938L1.36065 3.48982C-0.288447 3.90209 -0.494303 6.16243 1.05318 6.86583L4.87599 8.60348C5.65975 8.95973 6.50815 9.08841 7.33262 9.00057C7.24478 9.82504 7.37346 10.6734 7.72972 11.4572L9.46736 15.28C10.1708 16.8275 12.4311 16.6216 12.8434 14.9725L15.9453 2.56502C16.274 1.2502 15.083 0.0592369 13.7682 0.387938ZM5.538 7.14705C6.28759 7.48777 7.12656 7.51383 7.87785 7.24732C8.16179 7.1466 8.43321 7.00408 8.68254 6.82096C8.71726 6.79546 8.75156 6.76918 8.78539 6.74211L10.6162 5.27743C10.9076 5.04431 11.2889 5.42555 11.0558 5.71695L9.59109 7.5478C9.56402 7.58164 9.53773 7.61593 9.51223 7.65065C9.32911 7.89998 9.1866 8.1714 9.08587 8.45534C8.81936 9.20663 8.84542 10.0456 9.18615 10.7952L10.9238 14.618C11.0004 14.7865 11.2464 14.7641 11.2913 14.5845L14.3932 2.177C14.429 2.03387 14.2993 1.90421 14.1562 1.94L1.74866 5.04188C1.56914 5.08676 1.54673 5.33283 1.71519 5.4094L5.538 7.14705Z" fill="#525252"/>
</svg>
