<svg width="16" height="17" viewBox="0 0 16 17" fill="none" xmlns="http://www.w3.org/2000/svg">
<path fill-rule="evenodd" clip-rule="evenodd" d="M5.27759 10.9583C5.75495 10.9583 6.21939 11.1153 6.59863 11.4052C6.97789 11.6951 7.25102 12.1024 7.37622 12.563H14.4164C14.571 12.563 14.7197 12.6238 14.8291 12.7331C14.9385 12.8425 15 12.9912 15 13.1458C15 13.3005 14.9385 13.4491 14.8291 13.5585C14.7197 13.6679 14.5711 13.7294 14.4164 13.7294H7.37622C7.251 14.19 6.9778 14.5965 6.59863 14.8864C6.21938 15.1764 5.75498 15.3333 5.27759 15.3333C4.80035 15.3333 4.33656 15.1762 3.9574 14.8864C3.57815 14.5965 3.30416 14.1901 3.17896 13.7294H1.58362C1.42894 13.7294 1.28029 13.6679 1.1709 13.5585C1.0615 13.4491 1 13.3005 1 13.1458C1.00004 12.9912 1.06154 12.8425 1.1709 12.7331C1.28027 12.6238 1.42901 12.563 1.58362 12.563H3.17896C3.30416 12.1024 3.57814 11.6951 3.9574 11.4052C4.33653 11.1155 4.8004 10.9584 5.27759 10.9583ZM5.07849 12.1443C4.8805 12.1837 4.6983 12.281 4.55554 12.4238C4.41278 12.5665 4.31552 12.7487 4.27612 12.9467C4.23676 13.1446 4.25708 13.3499 4.33423 13.5363C4.41144 13.7227 4.5425 13.8822 4.71021 13.9943C4.87808 14.1065 5.07569 14.1669 5.27759 14.1669C5.54819 14.1665 5.80744 14.0583 5.99878 13.867C6.19008 13.6757 6.29824 13.4164 6.29871 13.1458C6.29868 12.944 6.23824 12.7463 6.1261 12.5784C6.01394 12.4107 5.85448 12.2797 5.66809 12.2025C5.48167 12.1253 5.27638 12.105 5.07849 12.1443Z" fill="#525252"/>
<path fill-rule="evenodd" clip-rule="evenodd" d="M10.7224 6.14496C11.1998 6.14496 11.6642 6.3018 12.0435 6.59186C12.4226 6.88191 12.6961 7.28899 12.821 7.74969H14.4164C14.5711 7.74969 14.7197 7.8112 14.8291 7.92059C14.9383 8.02991 14.9999 8.17792 15 8.33246C15 8.48717 14.9385 8.63578 14.8291 8.74518C14.7197 8.85457 14.5711 8.91608 14.4164 8.91608H12.821C12.6961 9.37684 12.4227 9.78386 12.0435 10.0739C11.6642 10.364 11.1998 10.5208 10.7224 10.5208C10.245 10.5208 9.78059 10.364 9.40137 10.0739C9.02217 9.78386 8.74877 9.37683 8.62378 8.91608H1.58362C1.42891 8.91608 1.28029 8.85457 1.1709 8.74518C1.0615 8.63578 1 8.48717 1 8.33246C1.00008 8.17792 1.06166 8.02991 1.1709 7.92059C1.28029 7.8112 1.42891 7.74969 1.58362 7.74969H8.62378C8.74876 7.28899 9.02224 6.88191 9.40137 6.59186C9.78059 6.3018 10.245 6.14496 10.7224 6.14496ZM10.5233 7.33185C10.3253 7.37124 10.1431 7.4685 10.0004 7.61127C9.8578 7.75395 9.76033 7.93554 9.72095 8.13336C9.68156 8.33138 9.70179 8.53728 9.77905 8.72382C9.85633 8.91022 9.98725 9.06971 10.155 9.18182C10.3229 9.29399 10.5205 9.35358 10.7224 9.35358C10.9929 9.35327 11.2523 9.2457 11.4436 9.0545C11.635 8.86313 11.7432 8.60311 11.7435 8.33246C11.7435 8.1307 11.683 7.9337 11.5709 7.76593C11.4588 7.59806 11.2994 7.46722 11.1129 7.38995C10.9264 7.3127 10.7213 7.29246 10.5233 7.33185Z" fill="#525252"/>
<path fill-rule="evenodd" clip-rule="evenodd" d="M5.27759 1.33331C5.75495 1.33331 6.21939 1.49031 6.59863 1.78021C6.97789 2.07015 7.25102 2.47737 7.37622 2.93805H14.4164C14.571 2.93805 14.7197 2.99883 14.8291 3.10809C14.9385 3.21745 15 3.36616 15 3.52081C15 3.67552 14.9385 3.82414 14.8291 3.93353C14.7197 4.04289 14.5711 4.10443 14.4164 4.10443H7.37622C7.251 4.565 6.9778 4.97152 6.59863 5.26141C6.21938 5.55135 5.75498 5.70831 5.27759 5.70831C4.80034 5.70825 4.33656 5.55125 3.9574 5.26141C3.57815 4.97148 3.30416 4.5651 3.17896 4.10443H1.58362C1.42894 4.10443 1.28029 4.04289 1.1709 3.93353C1.0615 3.82414 1 3.67552 1 3.52081C1.00004 3.36616 1.06154 3.21745 1.1709 3.10809C1.28027 2.99883 1.42901 2.93805 1.58362 2.93805H3.17896C3.30416 2.47737 3.57814 2.07015 3.9574 1.78021C4.33653 1.49045 4.8004 1.33338 5.27759 1.33331ZM5.27759 2.50055C5.00698 2.50086 4.74777 2.60829 4.5564 2.79962C4.36506 2.99096 4.25682 3.25022 4.25647 3.52081C4.25647 3.72271 4.31691 3.92032 4.42908 4.0882C4.54124 4.25598 4.70062 4.38694 4.88708 4.46417C5.07355 4.54137 5.27874 4.56164 5.47668 4.52228C5.67471 4.48289 5.85687 4.38562 5.99963 4.24286C6.14236 4.1001 6.23967 3.9179 6.27905 3.71991C6.31837 3.52199 6.29815 3.31674 6.22095 3.13031C6.14372 2.94386 6.01274 2.78446 5.84497 2.6723C5.6771 2.56013 5.47949 2.50055 5.27759 2.50055Z" fill="#525252"/>
</svg>
