<svg width="16" height="17" viewBox="0 0 16 17" fill="none" xmlns="http://www.w3.org/2000/svg">
<g clip-path="url(#clip0_132_10725)">
<path fill-rule="evenodd" clip-rule="evenodd" d="M4.59849 1.57333C5.71909 1.65453 6.88676 2.20079 8.00452 3.30636C9.122 2.2011 10.2886 1.65588 11.4082 1.57648C12.6717 1.48687 13.7888 1.99756 14.597 2.80328C16.1859 4.38744 16.6849 7.25398 14.7132 9.22568C14.7066 9.23233 14.6997 9.23883 14.6928 9.24513L8.38813 14.9559C8.17041 15.1531 7.83863 15.1531 7.6209 14.9559L1.31624 9.24513C1.30927 9.23883 1.30245 9.23233 1.2958 9.22568C-0.686174 7.24371 -0.189863 4.37684 1.40431 2.79391C2.21447 1.98945 3.33377 1.48169 4.59849 1.57333Z" fill="#525252"/>
</g>
<defs>
<clipPath id="clip0_132_10725">
<rect width="16" height="16" fill="white" transform="translate(0 0.333313)"/>
</clipPath>
</defs>
</svg>
