<svg width="16" height="17" viewBox="0 0 16 17" fill="none" xmlns="http://www.w3.org/2000/svg">
<path d="M8.23535 0C10.201 4.23921e-05 11.8283 1.44651 12.1123 3.33301H12.9082C13.0887 3.33301 13.2353 3.47969 13.2354 3.66016V5.00684C13.2352 5.1872 13.0886 5.33301 12.9082 5.33301H12.1553C12.1548 5.58658 12.1525 5.83542 12.1455 6.07812H12.2734C12.4366 6.07815 12.5683 6.21089 12.5684 6.37402V7.7832C12.5683 7.94629 12.4365 8.0781 12.2734 8.07812H11.8721C11.7617 8.42156 11.6092 8.73163 11.3975 9.00098C12.461 9.90016 13.1367 11.2433 13.1367 12.7451V16.667H3.33301V12.7451C3.33302 11.2054 4.04393 9.83226 5.1543 8.93359C4.95889 8.68028 4.80695 8.39327 4.68945 8.07812H4.19727C4.03435 8.07789 3.90242 7.94616 3.90234 7.7832V6.37402C3.90236 6.21102 4.03431 6.07836 4.19727 6.07812H4.33496C4.32244 5.83541 4.31568 5.5866 4.31445 5.33301H3.5625C3.38215 5.33294 3.23549 5.18716 3.23535 5.00684V3.66016C3.23538 3.47973 3.38209 3.33307 3.5625 3.33301H4.35742C4.64138 1.44644 6.26963 5.81411e-05 8.23535 0ZM8.55078 5.13672C8.46789 4.80758 8.00001 4.80768 7.91699 5.13672L7.00195 8.7959C6.95039 9.00216 7.10673 9.20215 7.31934 9.20215H9.14844C9.36094 9.20203 9.51737 9.00209 9.46582 8.7959L8.55078 5.13672Z" fill="#525252"/>
</svg>
