<svg width="16" height="17" viewBox="0 0 16 17" fill="none" xmlns="http://www.w3.org/2000/svg">
<g clip-path="url(#clip0_168_16786)">
<path fill-rule="evenodd" clip-rule="evenodd" d="M8 16.3333C12.4183 16.3333 16 12.7516 16 8.33331C16 3.91504 12.4183 0.333313 8 0.333313C3.58172 0.333313 0 3.91504 0 8.33331C0 12.7516 3.58172 16.3333 8 16.3333ZM5.2 4.93331C5.2 4.60194 4.93137 4.33331 4.6 4.33331C4.26863 4.33331 4 4.60194 4 4.93331V6.53331C4 7.30651 4.6268 7.93331 5.4 7.93331H5.6V11.7333C5.6 12.0647 5.86863 12.3333 6.2 12.3333C6.53137 12.3333 6.8 12.0647 6.8 11.7333V7.93331H7C7.7732 7.93331 8.4 7.30651 8.4 6.53331V4.93331C8.4 4.60194 8.13137 4.33331 7.8 4.33331C7.46863 4.33331 7.2 4.60194 7.2 4.93331V6.53331C7.2 6.64377 7.11046 6.73331 7 6.73331H6.8V4.93331C6.8 4.60194 6.53137 4.33331 6.2 4.33331C5.86863 4.33331 5.6 4.60194 5.6 4.93331V6.73331H5.4C5.28954 6.73331 5.2 6.64377 5.2 6.53331V4.93331ZM10.4 9.13331H9.90994C9.36389 9.13331 8.97832 8.59836 9.15099 8.08033L10.1844 4.98009C10.2936 4.65241 10.5272 4.41747 10.8442 4.35375C10.8939 4.34042 10.9461 4.33331 11 4.33331C11.3314 4.33331 11.6 4.60194 11.6 4.93331V11.7333C11.6 12.0647 11.3314 12.3333 11 12.3333C10.6686 12.3333 10.4 12.0647 10.4 11.7333V9.13331Z" fill="#525252"/>
</g>
<defs>
<clipPath id="clip0_168_16786">
<rect width="16" height="16" fill="white" transform="translate(0 0.333313)"/>
</clipPath>
</defs>
</svg>
