<svg width="16" height="17" viewBox="0 0 16 17" fill="none" xmlns="http://www.w3.org/2000/svg">
<g clip-path="url(#clip0_168_16782)">
<path fill-rule="evenodd" clip-rule="evenodd" d="M9.81802 2.1966C10.422 2.28493 10.994 2.5676 11.477 3.01127C11.5394 2.44093 11.319 1.90293 10.8787 1.64893C10.7648 1.58216 10.6819 1.47304 10.6482 1.34539C10.6144 1.21774 10.6325 1.08193 10.6986 0.967586C10.7646 0.853242 10.8731 0.769653 11.0006 0.735059C11.128 0.700465 11.2639 0.717675 11.3787 0.782933C12.4004 1.37293 12.6564 2.55993 12.3787 3.57527C13.922 3.9036 15.1654 5.27393 15.1654 6.99993C15.1654 7.13254 15.1127 7.25972 15.0189 7.35349C14.9251 7.44725 14.798 7.49993 14.6654 7.49993C14.5327 7.49993 14.4056 7.44725 14.3118 7.35349C14.218 7.25972 14.1654 7.13254 14.1654 6.99993C14.1654 5.96093 13.528 5.09593 12.662 4.7126C13.0074 5.70593 12.8337 6.85927 12.0787 7.67327C12.0344 7.72274 11.9807 7.76289 11.9207 7.79138C11.8607 7.81987 11.7957 7.83612 11.7293 7.83919C11.663 7.84227 11.5967 7.8321 11.5344 7.80928C11.472 7.78646 11.4148 7.75145 11.3661 7.70629C11.3175 7.66113 11.2783 7.60672 11.2508 7.54625C11.2234 7.48577 11.2083 7.42044 11.2064 7.35407C11.2045 7.28769 11.2158 7.2216 11.2397 7.15965C11.2637 7.09771 11.2997 7.04114 11.3457 6.99327C11.9377 6.35493 11.9864 5.34827 11.5077 4.60827C11.0917 4.79093 10.669 5.20827 10.303 5.89493C9.94069 6.57393 9.67036 7.45827 9.54836 8.46227C9.0364 8.37625 8.51816 8.3331 7.99902 8.33327C7.28569 8.33327 6.58969 8.41327 5.93036 8.56627C6.37169 6.11627 8.25969 4.1696 10.6784 3.64193C10.3614 3.38627 10.0144 3.23593 9.67302 3.18593C9.11636 3.10427 8.52469 3.2806 8.02302 3.79327C7.9295 3.88413 7.80417 3.93487 7.67377 3.93465C7.54337 3.93443 7.41822 3.88328 7.32499 3.7921C7.23177 3.70092 7.17786 3.57693 7.17475 3.44657C7.17164 3.3162 7.21958 3.18978 7.30836 3.09427C8.02169 2.3646 8.92836 2.06593 9.81802 2.1966ZM12.295 10.4299C11.1754 9.63927 9.65502 9.1666 7.99902 9.1666C6.34302 9.1666 4.82302 9.6396 3.70369 10.4299C2.60002 11.2089 1.85169 12.3266 1.83269 13.6163C1.87713 13.5916 1.9208 13.5647 1.96369 13.5356C2.36832 13.2636 2.84481 13.1183 3.33236 13.1183C3.8199 13.1183 4.2964 13.2636 4.70102 13.5356C4.98542 13.7294 5.32157 13.833 5.66569 13.833C6.00981 13.833 6.34596 13.7294 6.63036 13.5356C7.03498 13.2636 7.51148 13.1183 7.99902 13.1183C8.48657 13.1183 8.96306 13.2636 9.36769 13.5356C9.65208 13.7294 9.98823 13.833 10.3324 13.833C10.6765 13.833 11.0126 13.7294 11.297 13.5356C11.7016 13.2636 12.1781 13.1183 12.6657 13.1183C13.1532 13.1183 13.6297 13.2636 14.0344 13.5356C14.0772 13.5645 14.1209 13.5914 14.1654 13.6163C14.1464 12.3269 13.398 11.2089 12.2944 10.4296M11.858 14.3629C12.3397 14.0363 12.9914 14.0363 13.4727 14.3629C13.9228 14.6693 14.4546 14.8332 14.999 14.8333C15.1316 14.8333 15.2588 14.8859 15.3526 14.9797C15.4463 15.0735 15.499 15.2007 15.499 15.3333C15.499 15.4659 15.4463 15.5931 15.3526 15.6868C15.2588 15.7806 15.1316 15.8333 14.999 15.8333H0.999023C0.866415 15.8333 0.739238 15.7806 0.64547 15.6868C0.551702 15.5931 0.499023 15.4659 0.499023 15.3333C0.499023 15.2007 0.551702 15.0735 0.64547 14.9797C0.739238 14.8859 0.866415 14.8333 0.999023 14.8333C1.53069 14.8333 2.06236 14.6766 2.52502 14.3633C3.00669 14.0366 3.65836 14.0366 4.13969 14.3633C4.60236 14.6766 5.13402 14.8333 5.66569 14.8333C6.19736 14.8333 6.72902 14.6766 7.19169 14.3633C7.67336 14.0366 8.32502 14.0366 8.80636 14.3633C9.26902 14.6766 9.80069 14.8333 10.3324 14.8333C10.864 14.8333 11.3957 14.6766 11.8584 14.3633" fill="#525252"/>
</g>
<defs>
<clipPath id="clip0_168_16782">
<rect width="16" height="16" fill="white" transform="translate(0 0.333313)"/>
</clipPath>
</defs>
</svg>
