<svg width="16" height="17" viewBox="0 0 16 17" fill="none" xmlns="http://www.w3.org/2000/svg">
<path d="M11.5997 9.54828L10.6386 10.2748L9.91211 9.3136" stroke="#525252" stroke-width="1.14286" stroke-linecap="round" stroke-linejoin="round"/>
<path d="M10.5861 10.2026C10.7447 9.89773 10.8524 9.55975 10.8964 9.19849C11.0935 7.5825 9.94327 6.11273 8.32728 5.91566C7.81583 5.85328 7.31902 5.92586 6.87256 6.10547" stroke="#525252" stroke-width="1.14286" stroke-linecap="round" stroke-linejoin="round"/>
<path d="M4.3374 8.17941L5.29855 7.45294L6.02501 8.4141" stroke="#525252" stroke-width="1.14286" stroke-linecap="round" stroke-linejoin="round"/>
<path d="M5.35142 7.52521C5.19273 7.83006 5.08508 8.16804 5.04102 8.5293C4.84395 10.1453 5.9942 11.6151 7.61019 11.8122C8.12164 11.8745 8.61846 11.8019 9.06491 11.6223" stroke="#525252" stroke-width="1.14286" stroke-linecap="round" stroke-linejoin="round"/>
<path d="M15.4289 5.47606C15.4289 5.17295 15.3085 4.88226 15.0942 4.66793C14.8799 4.45361 14.5891 4.3332 14.2861 4.3332H12.0003L10.2861 2.04749H5.71463L4.00035 4.3332H1.71463C1.41153 4.3332 1.12084 4.45361 0.906512 4.66793C0.692185 4.88226 0.571777 5.17295 0.571777 5.47606V13.4761C0.571777 13.7791 0.692185 14.0699 0.906512 14.2842C1.12084 14.4985 1.41153 14.6189 1.71463 14.6189H14.2861C14.5891 14.6189 14.8799 14.4985 15.0942 14.2842C15.3085 14.0699 15.4289 13.7791 15.4289 13.4761V5.47606Z" stroke="#525252" stroke-width="1.14286" stroke-linecap="round" stroke-linejoin="round"/>
</svg>
