<svg width="16" height="17" viewBox="0 0 16 17" fill="none" xmlns="http://www.w3.org/2000/svg">
<path d="M8 1.66632C11.6819 1.66632 14.667 4.65141 14.667 8.33331C14.667 12.0152 11.6819 15.0003 8 15.0003C4.31818 15.0002 1.334 12.0151 1.33398 8.33331C1.33398 4.65147 4.31818 1.66641 8 1.66632ZM10.4717 5.86163C10.2113 5.60129 9.78867 5.60131 9.52832 5.86163L8 7.38995L6.47168 5.86163C6.21134 5.60129 5.78867 5.60131 5.52832 5.86163C5.26797 6.12198 5.26797 6.54464 5.52832 6.80499L7.05664 8.33331L5.52832 9.86163C5.26797 10.122 5.26797 10.5446 5.52832 10.805C5.78867 11.0653 6.21134 11.0653 6.47168 10.805L8 9.27667L9.52832 10.805C9.78867 11.0653 10.2113 11.0653 10.4717 10.805C10.732 10.5446 10.732 10.122 10.4717 9.86163L8.94336 8.33331L10.4717 6.80499C10.732 6.54465 10.732 6.12197 10.4717 5.86163Z" fill="#525252"/>
</svg>
