<svg width="24" height="25" viewBox="0 0 24 25" fill="none" xmlns="http://www.w3.org/2000/svg">
<g clip-path="url(#clip0_168_15809)">
<path fill-rule="evenodd" clip-rule="evenodd" d="M8.28164 2.2068C7.99201 1.93107 7.53699 1.93107 7.24735 2.2068L1.73286 7.45681C1.58416 7.59836 1.5 7.79469 1.5 8V22.25C1.5 22.6642 1.83579 23 2.25 23H6.26449V20C6.26449 19.1716 6.93608 18.5 7.76449 18.5C8.59293 18.5 9.26449 19.1716 9.26449 20V23H13.279C13.6932 23 14.029 22.6642 14.029 22.25V8C14.029 7.79469 13.9448 7.59836 13.7961 7.45681L8.28164 2.2068ZM16.1529 11.75C16.1529 11.3358 16.4887 11 16.9029 11H21.75C22.1642 11 22.5 11.3358 22.5 11.75V22.25C22.5 22.6642 22.1642 23 21.75 23H16.9029C16.4887 23 16.1529 22.6642 16.1529 22.25V11.75ZM4.75905 13.6445C4.75905 13.1267 5.17878 12.707 5.69655 12.707H9.83243C10.3502 12.707 10.7699 13.1267 10.7699 13.6445C10.7699 14.1622 10.3502 14.582 9.83243 14.582H5.69655C5.17878 14.582 4.75905 14.1622 4.75905 13.6445ZM5.69655 8.79595C5.17878 8.79595 4.75905 9.21568 4.75905 9.73345C4.75905 10.2512 5.17878 10.6709 5.69655 10.6709H9.83243C10.3502 10.6709 10.7699 10.2512 10.7699 9.73345C10.7699 9.21568 10.3502 8.79595 9.83243 8.79595H5.69655Z" fill="#525252"/>
</g>
<defs>
<clipPath id="clip0_168_15809">
<rect width="21" height="21" fill="white" transform="translate(1.5 2)"/>
</clipPath>
</defs>
</svg>
