<svg width="24" height="25" viewBox="0 0 24 25" fill="none" xmlns="http://www.w3.org/2000/svg">
<g clip-path="url(#clip0_168_18387)">
<path d="M10.2862 16.3654C10.2862 16.3654 9.02062 16.1037 8.50284 16.3654C8.11728 16.5599 6.62504 17.1533 5.88893 17.4439V22.8978C6.31504 22.8708 7.16283 22.8209 7.52505 22.8369C8.60451 22.8855 9.41063 23.1693 10.2256 23.4562C10.9862 23.7239 11.7545 23.9948 12.759 24.0791C13.0123 24.1001 13.2579 24.1278 13.4962 24.1542C14.3573 24.2503 15.1196 24.3352 15.7507 24.0791C16.5563 23.7523 21.1574 21.2684 21.7324 20.6147C22.3074 19.9609 22.0202 18.1955 20.2368 18.5223C19.3574 18.6836 18.3368 19.1478 17.4124 19.5682C16.4624 19.9997 15.6129 20.3863 15.1179 20.3531C14.1401 20.2878 11.5512 19.7646 11.5512 19.7646L14.5235 19.8046C14.5235 19.8046 14.9435 19.8292 15.5201 19.3724C16.0979 18.9157 16.6135 17.6076 15.7507 17.6076C14.8879 17.6076 13.9673 17.2801 13.9673 17.2801L10.2862 16.3654ZM2 16.8646C2 16.7013 2.05853 16.5448 2.16272 16.4293C2.26691 16.3139 2.40822 16.249 2.55556 16.249H4.22224C4.36959 16.249 4.5109 16.3139 4.61508 16.4293C4.71927 16.5448 4.7778 16.7013 4.7778 16.8646V23.6334C4.7778 23.7967 4.71927 23.9533 4.61508 24.0687C4.5109 24.1842 4.36959 24.249 4.22224 24.249H2.55556C2.40822 24.249 2.26691 24.1842 2.16272 24.0687C2.05853 23.9533 2 23.7967 2 23.6334V16.8646Z" fill="#525252"/>
<path d="M18.0209 2.41579C18.4142 2.25172 18.8368 2.16723 19.2638 2.16732C19.6907 2.16723 20.1133 2.25172 20.5066 2.41579C20.8999 2.57986 21.2559 2.82018 21.5535 3.12252C22.1606 3.7415 22.5 4.56941 22.5 5.43111C22.5 6.29281 22.1606 7.12072 21.5535 7.7397L16.5024 12.8333L11.4465 7.7397C10.8394 7.12072 10.5 6.29281 10.5 5.43111C10.5 4.56941 10.8394 3.7415 11.4465 3.12252C11.744 2.82005 12.1 2.57961 12.4933 2.41542C12.8866 2.25123 13.3092 2.16663 13.7362 2.16663C14.1632 2.16663 14.5859 2.25123 14.9792 2.41542C15.3725 2.57961 15.7284 2.82005 16.026 3.12252L16.5024 3.60249L16.974 3.12252C17.2716 2.82018 17.6276 2.57986 18.0209 2.41579Z" fill="#525252"/>
</g>
<defs>
<clipPath id="clip0_168_18387">
<rect width="24" height="24" fill="white" transform="translate(0 0.5)"/>
</clipPath>
</defs>
</svg>
