<svg width="25" height="24" viewBox="0 0 25 24" fill="none" xmlns="http://www.w3.org/2000/svg">
<path d="M12.5 10.1416C16.5808 10.1416 18.6211 14.4674 18.6211 17.2832C18.6207 20.0986 15.3156 21.3633 12.5 21.3633C9.68443 21.3632 6.37929 20.0986 6.37891 17.2832C6.37891 14.4675 8.41927 10.1417 12.5 10.1416ZM4.31836 9.1416C5.44518 9.1417 6.3584 10.5119 6.3584 12.2021C6.35829 13.8923 5.44511 15.2626 4.31836 15.2627C3.19154 15.2627 2.27843 13.8923 2.27832 12.2021C2.27832 10.5118 3.19147 9.1416 4.31836 9.1416ZM20.6826 9.1416C21.8095 9.1417 22.7227 10.5119 22.7227 12.2021C22.7225 13.8923 21.8094 15.2626 20.6826 15.2627C19.5558 15.2627 18.6427 13.8923 18.6426 12.2021C18.6426 10.5118 19.5557 9.1416 20.6826 9.1416ZM8.98926 2C10.3642 2 11.4795 3.67192 11.4795 5.73438C11.4795 7.79685 10.3642 9.46875 8.98926 9.46875C7.61446 9.46845 6.5 7.79667 6.5 5.73438C6.50002 3.67211 7.61447 2.0003 8.98926 2ZM16.0107 2C17.3856 2.0004 18.4999 3.67215 18.5 5.73438C18.5 7.79671 17.3856 9.46835 16.0107 9.46875C14.6357 9.46875 13.5205 7.79696 13.5205 5.73438C13.5206 3.67191 14.6358 2 16.0107 2Z" fill="#2B7FFF"/>
</svg>
