<svg width="24" height="24" viewBox="0 0 24 24" fill="none" xmlns="http://www.w3.org/2000/svg">
<path fill-rule="evenodd" clip-rule="evenodd" d="M11.9999 8.00002C9.79073 8.00002 7.99987 9.79088 7.99987 12C7.99987 14.2092 9.79073 16 11.9999 16C14.209 16 15.9999 14.2092 15.9999 12C15.9999 9.79088 14.209 8.00002 11.9999 8.00002ZM9.99987 12C9.99987 10.8955 10.8953 10 11.9999 10C13.1044 10 13.9999 10.8955 13.9999 12C13.9999 13.1046 13.1044 14 11.9999 14C10.8953 14 9.99987 13.1046 9.99987 12Z" fill="#262626"/>
<path fill-rule="evenodd" clip-rule="evenodd" d="M11.9999 8.00002C9.79073 8.00002 7.99987 9.79088 7.99987 12C7.99987 14.2092 9.79073 16 11.9999 16C14.209 16 15.9999 14.2092 15.9999 12C15.9999 9.79088 14.209 8.00002 11.9999 8.00002ZM9.99987 12C9.99987 10.8955 10.8953 10 11.9999 10C13.1044 10 13.9999 10.8955 13.9999 12C13.9999 13.1046 13.1044 14 11.9999 14C10.8953 14 9.99987 13.1046 9.99987 12Z" fill="#262626"/>
<path fill-rule="evenodd" clip-rule="evenodd" d="M10.7672 1.01709C10.9924 0.999829 11.2452 0.99993 11.4514 1.00001L12.5483 1.00001C12.7545 0.99993 13.0073 0.999829 13.2326 1.01709C13.4987 1.03749 13.8677 1.08936 14.2633 1.26937C14.7634 1.49689 15.1914 1.85736 15.5006 2.31147C15.7453 2.67075 15.8591 3.0255 15.9244 3.2843C15.9798 3.50334 16.0226 3.75249 16.0576 3.9557L16.1992 4.77635L16.202 4.77788C16.2368 4.79712 16.2714 4.81659 16.3059 4.8363L16.3084 4.83774L17.2454 4.49865C17.4354 4.42978 17.6691 4.34509 17.8834 4.28543C18.137 4.2148 18.4953 4.13889 18.9215 4.17026C19.4612 4.20998 19.9802 4.39497 20.4234 4.70563C20.7733 4.95095 21.0028 5.23636 21.1545 5.4515C21.2827 5.63326 21.4102 5.84671 21.5138 6.02029L22.0157 6.86003C22.1254 7.04345 22.2592 7.26713 22.3625 7.47527C22.4842 7.7203 22.6327 8.07474 22.6776 8.52067C22.734 9.08222 22.6309 9.64831 22.3801 10.1539C22.181 10.5554 21.917 10.8347 21.7168 11.0212C21.5468 11.1795 21.3427 11.3417 21.1754 11.4746L20.4999 12L21.1754 12.5254C21.3427 12.6584 21.5467 12.8205 21.7168 12.9789C21.917 13.1653 22.1809 13.4446 22.3801 13.8461C22.6309 14.3517 22.734 14.9178 22.6775 15.4794C22.6327 15.9253 22.4841 16.2797 22.3625 16.5248C22.2592 16.7329 22.1254 16.9566 22.0157 17.14L21.5137 17.9799C21.4101 18.1535 21.2827 18.3668 21.1545 18.5485C21.0027 18.7637 20.7733 19.0491 20.4233 19.2944C19.9802 19.6051 19.4612 19.7901 18.9214 19.8298C18.4952 19.8612 18.137 19.7852 17.8834 19.7146C17.6691 19.6549 17.4354 19.5703 17.2453 19.5014L16.3084 19.1623L16.3059 19.1638C16.2714 19.1835 16.2368 19.2029 16.202 19.2222L16.1992 19.2237L16.0576 20.0443C16.0226 20.2475 15.9798 20.4967 15.9244 20.7157C15.8591 20.9745 15.7453 21.3293 15.5006 21.6886C15.1914 22.1427 14.7634 22.5032 14.2633 22.7307C13.8677 22.9107 13.4987 22.9626 13.2326 22.983C13.0073 23.0002 12.7545 23.0001 12.5483 23H11.4514C11.2452 23.0001 10.9924 23.0002 10.7672 22.983C10.501 22.9626 10.1321 22.9107 9.73643 22.7307C9.23636 22.5032 8.80837 22.1427 8.49914 21.6886C8.25449 21.3293 8.14065 20.9745 8.0753 20.7157C8.01999 20.4967 7.9771 20.2475 7.94213 20.0443L7.80056 19.2237L7.79779 19.2222C7.76298 19.2029 7.72833 19.1835 7.69383 19.1637L7.6913 19.1623L6.75445 19.5014C6.56438 19.5702 6.33065 19.6549 6.11638 19.7146C5.86276 19.7852 5.5045 19.8611 5.07829 19.8298C4.53854 19.7901 4.01959 19.6051 3.57642 19.2944C3.22647 19.0491 2.99702 18.7637 2.84526 18.5485C2.71706 18.3668 2.58962 18.1534 2.48597 17.9798L1.98406 17.14C1.87434 16.9566 1.74055 16.7329 1.63725 16.5248C1.51563 16.2797 1.36706 15.9253 1.32223 15.4794C1.26576 14.9178 1.36885 14.3517 1.61964 13.8461C1.8188 13.4446 2.08277 13.1653 2.28296 12.9789C2.45299 12.8205 2.65704 12.6584 2.82437 12.5254L3.47832 12.0054V11.9947L2.82433 11.4746C2.657 11.3417 2.45295 11.1795 2.28292 11.0212C2.08273 10.8347 1.81875 10.5554 1.6196 10.1539C1.3688 9.64832 1.26572 9.08224 1.32218 8.52069C1.36702 8.07476 1.51558 7.72032 1.6372 7.47528C1.7405 7.26715 1.8743 7.04347 1.98402 6.86005L2.48593 6.02026C2.58957 5.84669 2.71701 5.63326 2.84522 5.45151C2.99698 5.23637 3.22643 4.95096 3.57637 4.70565C4.01954 4.39498 4.5385 4.20999 5.07825 4.17027C5.50446 4.1389 5.86272 4.21481 6.11634 4.28544C6.3306 4.34511 6.56432 4.4298 6.75439 4.49867L7.69129 4.83775L7.69382 4.8363C7.72832 4.8166 7.76298 4.79712 7.79778 4.77788L7.80056 4.77635L7.94213 3.95571C7.97711 3.7525 8.01999 3.50334 8.0753 3.2843C8.14065 3.0255 8.25449 2.67075 8.49914 2.31147C8.80837 1.85736 9.23636 1.49689 9.73643 1.26937C10.1321 1.08936 10.501 1.03749 10.7672 1.01709ZM14.0937 4.3363C14.0109 3.85634 13.9695 3.61637 13.8475 3.43717C13.7444 3.2858 13.6017 3.16564 13.4351 3.0898C13.2377 3.00002 12.9942 3.00002 12.5072 3.00002H11.4926C11.0055 3.00002 10.762 3.00002 10.5647 3.0898C10.398 3.16564 10.2553 3.2858 10.1523 3.43717C10.0302 3.61637 9.98883 3.85634 9.90603 4.3363L9.75 5.24064C9.69433 5.56333 9.66649 5.72467 9.60753 5.84869C9.54963 5.97047 9.50228 6.03703 9.40623 6.13166C9.30841 6.22804 9.12741 6.3281 8.76541 6.52822C8.73872 6.54298 8.71215 6.55791 8.6857 6.57302C8.33944 6.77078 8.1663 6.86966 8.03773 6.90314C7.91145 6.93602 7.8328 6.94279 7.70277 6.93196C7.57036 6.92094 7.42204 6.86726 7.12539 6.7599L6.11182 6.39308C5.66258 6.2305 5.43797 6.14921 5.22503 6.16488C5.04511 6.17811 4.87213 6.23978 4.72441 6.34333C4.54958 6.46589 4.42703 6.67094 4.18194 7.08103L3.72257 7.84965C3.46382 8.2826 3.33444 8.49907 3.31215 8.72078C3.29333 8.90796 3.32769 9.09665 3.41129 9.26519C3.5103 9.4648 3.70768 9.62177 4.10243 9.9357L4.82733 10.5122C5.07914 10.7124 5.20505 10.8126 5.28399 10.9199C5.36931 11.036 5.4057 11.1114 5.44342 11.2504C5.47832 11.379 5.47832 11.586 5.47832 12C5.47832 12.414 5.47832 12.621 5.44342 12.7497C5.4057 12.8887 5.36931 12.9641 5.284 13.0801C5.20506 13.1875 5.07914 13.2876 4.82731 13.4879L4.10249 14.0643C3.70773 14.3783 3.51034 14.5352 3.41133 14.7349C3.32773 14.9034 3.29337 15.0921 3.31219 15.2793C3.33448 15.501 3.46386 15.7174 3.72261 16.1504L4.18198 16.919C4.42707 17.3291 4.54962 17.5342 4.72445 17.6567C4.87217 17.7603 5.04516 17.8219 5.22508 17.8352C5.43801 17.8508 5.66263 17.7695 6.11187 17.607L7.1254 17.2402C7.42204 17.1328 7.57038 17.0791 7.70278 17.0681C7.83282 17.0573 7.91147 17.064 8.03774 17.0969C8.16632 17.1304 8.33944 17.2293 8.68569 17.427C8.71216 17.4421 8.73873 17.4571 8.76541 17.4718C9.12741 17.6719 9.30841 17.772 9.40623 17.8684C9.50228 17.963 9.54963 18.0296 9.60753 18.1514C9.66649 18.2754 9.69433 18.4367 9.75 18.7594L9.90603 19.6637C9.98883 20.1437 10.0302 20.3837 10.1523 20.5629C10.2553 20.7142 10.398 20.8344 10.5647 20.9102C10.762 21 11.0055 21 11.4926 21H12.5072C12.9942 21 13.2377 21 13.4351 20.9102C13.6017 20.8344 13.7444 20.7142 13.8475 20.5629C13.9695 20.3837 14.0109 20.1437 14.0937 19.6637L14.2497 18.7594C14.3054 18.4367 14.3332 18.2754 14.3922 18.1514C14.4501 18.0296 14.4975 17.963 14.5935 17.8684C14.6913 17.772 14.8723 17.6719 15.2343 17.4718C15.261 17.4571 15.2876 17.4421 15.314 17.427C15.6603 17.2293 15.8334 17.1304 15.962 17.0969C16.0883 17.064 16.1669 17.0573 16.2969 17.0681C16.4294 17.0791 16.5777 17.1328 16.8743 17.2402L17.8879 17.607C18.3371 17.7696 18.5617 17.8509 18.7747 17.8352C18.9546 17.8219 19.1276 17.7603 19.2753 17.6567C19.4501 17.5342 19.5727 17.3291 19.8178 16.919L20.2771 16.1504C20.5359 15.7175 20.6653 15.501 20.6876 15.2793C20.7064 15.0921 20.672 14.9034 20.5884 14.7349C20.4894 14.5353 20.292 14.3783 19.8973 14.0643L19.1724 13.4879C18.9206 13.2876 18.7947 13.1875 18.7157 13.0801C18.6304 12.9641 18.594 12.8887 18.5563 12.7497C18.5214 12.6211 18.5214 12.414 18.5214 12C18.5214 11.586 18.5214 11.379 18.5563 11.2504C18.594 11.1114 18.6304 11.036 18.7157 10.9199C18.7947 10.8126 18.9206 10.7124 19.1724 10.5122L19.8973 9.9357C20.2921 9.62176 20.4894 9.46479 20.5885 9.26517C20.6721 9.09664 20.7064 8.90795 20.6876 8.72076C20.6653 8.49906 20.5359 8.28259 20.2772 7.84964L19.8178 7.08102C19.5727 6.67093 19.4502 6.46588 19.2753 6.34332C19.1276 6.23977 18.9546 6.1781 18.7747 6.16486C18.5618 6.14919 18.3372 6.23048 17.8879 6.39307L16.8743 6.75989C16.5777 6.86725 16.4294 6.92093 16.297 6.93195C16.1669 6.94278 16.0883 6.93601 15.962 6.90313C15.8334 6.86965 15.6603 6.77077 15.314 6.57302C15.2876 6.55791 15.261 6.54298 15.2343 6.52822C14.8723 6.3281 14.6913 6.22804 14.5935 6.13166C14.4975 6.03703 14.4501 5.97047 14.3922 5.84869C14.3332 5.72467 14.3054 5.56332 14.2497 5.24064L14.0937 4.3363Z" fill="#262626"/>
</svg>
