<svg width="24" height="24" viewBox="0 0 24 24" fill="none" xmlns="http://www.w3.org/2000/svg">
<path fill-rule="evenodd" clip-rule="evenodd" d="M11.675 2C11.854 2 12.0257 2.07112 12.1523 2.1977C12.2789 2.32429 12.35 2.49598 12.35 2.675V3.8288C14.1986 3.9878 15.9317 4.7944 17.2436 6.10637C18.5556 7.41834 19.3622 9.15142 19.5212 11H20.675C20.854 11 21.0257 11.0711 21.1523 11.1977C21.2789 11.3243 21.35 11.496 21.35 11.675C21.35 11.854 21.2789 12.0257 21.1523 12.1523C21.0257 12.2789 20.854 12.35 20.675 12.35H19.5212C19.3622 14.1986 18.5556 15.9317 17.2436 17.2436C15.9317 18.5556 14.1986 19.3622 12.35 19.5212V20.675C12.35 20.854 12.2789 21.0257 12.1523 21.1523C12.0257 21.2789 11.854 21.35 11.675 21.35C11.496 21.35 11.3243 21.2789 11.1977 21.1523C11.0711 21.0257 11 20.854 11 20.675V19.5212C9.15142 19.3622 7.41834 18.5556 6.10637 17.2436C4.7944 15.9317 3.9878 14.1986 3.8288 12.35H2.675C2.49598 12.35 2.32429 12.2789 2.1977 12.1523C2.07112 12.0257 2 11.854 2 11.675C2 11.496 2.07112 11.3243 2.1977 11.1977C2.32429 11.0711 2.49598 11 2.675 11H3.8288C3.9878 9.15142 4.7944 7.41834 6.10637 6.10637C7.41834 4.7944 9.15142 3.9878 11 3.8288V2.675C11 2.49598 11.0711 2.32429 11.1977 2.1977C11.3243 2.07112 11.496 2 11.675 2ZM11.675 5.15C10.8181 5.15 9.96964 5.31877 9.17799 5.64669C8.38634 5.9746 7.66703 6.45523 7.06113 7.06113C6.45523 7.66703 5.9746 8.38634 5.64669 9.17799C5.31877 9.96964 5.15 10.8181 5.15 11.675C5.15 12.5319 5.31877 13.3804 5.64669 14.172C5.9746 14.9637 6.45523 15.683 7.06113 16.2889C7.66703 16.8948 8.38634 17.3754 9.17799 17.7033C9.96964 18.0312 10.8181 18.2 11.675 18.2C13.4055 18.2 15.0652 17.5125 16.2889 16.2889C17.5125 15.0652 18.2 13.4055 18.2 11.675C18.2 9.94446 17.5125 8.2848 16.2889 7.06113C15.0652 5.83745 13.4055 5.15 11.675 5.15ZM11.675 9.65C11.1379 9.65 10.6229 9.86335 10.2431 10.2431C9.86335 10.6229 9.65 11.1379 9.65 11.675C9.65 12.2121 9.86335 12.7271 10.2431 13.1069C10.6229 13.4867 11.1379 13.7 11.675 13.7C12.2121 13.7 12.7271 13.4867 13.1069 13.1069C13.4867 12.7271 13.7 12.2121 13.7 11.675C13.7 11.1379 13.4867 10.6229 13.1069 10.2431C12.7271 9.86335 12.2121 9.65 11.675 9.65ZM8.3 11.675C8.3 10.7799 8.65558 9.92145 9.28852 9.28852C9.92145 8.65558 10.7799 8.3 11.675 8.3C12.5701 8.3 13.4286 8.65558 14.0615 9.28852C14.6944 9.92145 15.05 10.7799 15.05 11.675C15.05 12.5701 14.6944 13.4286 14.0615 14.0615C13.4286 14.6944 12.5701 15.05 11.675 15.05C10.7799 15.05 9.92145 14.6944 9.28852 14.0615C8.65558 13.4286 8.3 12.5701 8.3 11.675Z" fill="#525252"/>
</svg>
