<svg width="24" height="24" viewBox="0 0 24 24" fill="none" xmlns="http://www.w3.org/2000/svg">
<g clip-path="url(#clip0_236_34376)">
<path fill-rule="evenodd" clip-rule="evenodd" d="M6.89749 1.86002C8.5784 1.98182 10.3299 2.80122 12.0065 4.45957C13.6828 2.80168 15.4327 1.98385 17.1121 1.86476C19.0074 1.73034 20.6829 2.49637 21.8953 3.70496C24.2786 6.0812 25.0271 10.381 22.0696 13.3386C22.0597 13.3485 22.0494 13.3583 22.0389 13.3677L12.582 21.9339C12.2554 22.2296 11.7577 22.2296 11.4311 21.9339L1.97411 13.3677C1.96365 13.3583 1.95344 13.3485 1.94346 13.3386C-1.02951 10.3656 -0.285039 6.06529 2.10621 3.6909C3.32145 2.48421 5.00041 1.72257 6.89749 1.86002Z" fill="#525252"/>
</g>
<defs>
<clipPath id="clip0_236_34376">
<rect width="24" height="24" fill="white"/>
</clipPath>
</defs>
</svg>
