<svg width="24" height="25" viewBox="0 0 24 25" fill="none" xmlns="http://www.w3.org/2000/svg">
<path d="M14.8577 4.01423C14.8577 3.57241 14.4995 3.21423 14.0577 3.21423H9.94342C9.50159 3.21423 9.14342 3.57241 9.14342 4.01423V8.8428C9.14342 9.28463 8.78524 9.64281 8.34342 9.64281H3.51484C3.07302 9.64281 2.71484 10.001 2.71484 10.4428V14.5571C2.71484 14.9989 3.07302 15.3571 3.51484 15.3571H8.34342C8.78524 15.3571 9.14342 15.7153 9.14342 16.1571V20.9857C9.14342 21.4275 9.50159 21.7857 9.94342 21.7857H14.0577C14.4995 21.7857 14.8577 21.4275 14.8577 20.9857V16.1571C14.8577 15.7153 15.2159 15.3571 15.6577 15.3571H20.4863C20.9281 15.3571 21.2863 14.9989 21.2863 14.5571V10.4428C21.2863 10.001 20.9281 9.64281 20.4863 9.64281H15.6577C15.2159 9.64281 14.8577 9.28463 14.8577 8.8428V4.01423Z" fill="#525252"/>
</svg>
