<svg width="24" height="24" viewBox="0 0 24 24" fill="none" xmlns="http://www.w3.org/2000/svg">
<g clip-path="url(#clip0_168_15808)">
<path fill-rule="evenodd" clip-rule="evenodd" d="M12 24C18.6274 24 24 18.6274 24 12C24 5.37258 18.6274 0 12 0C5.37258 0 0 5.37258 0 12C0 18.6274 5.37258 24 12 24ZM7.8 6.9C7.8 6.40294 7.39706 6 6.9 6C6.40294 6 6 6.40294 6 6.9V9.3C6 10.4598 6.9402 11.4 8.1 11.4H8.4V17.1C8.4 17.5971 8.80294 18 9.3 18C9.79706 18 10.2 17.5971 10.2 17.1V11.4H10.5C11.6598 11.4 12.6 10.4598 12.6 9.3V6.9C12.6 6.40294 12.1971 6 11.7 6C11.2029 6 10.8 6.40294 10.8 6.9V9.3C10.8 9.46569 10.6657 9.6 10.5 9.6H10.2V6.9C10.2 6.40294 9.79706 6 9.3 6C8.80294 6 8.4 6.40294 8.4 6.9V9.6H8.1C7.93432 9.6 7.8 9.46569 7.8 9.3V6.9ZM15.6 13.2H14.8649C14.0458 13.2 13.4675 12.3976 13.7265 11.6205L15.2766 6.97017C15.4404 6.47865 15.7909 6.12623 16.2663 6.03065C16.3408 6.01066 16.4192 6 16.5 6C16.9971 6 17.4 6.40294 17.4 6.9V17.1C17.4 17.5971 16.9971 18 16.5 18C16.0029 18 15.6 17.5971 15.6 17.1V13.2Z" fill="#525252"/>
</g>
<defs>
<clipPath id="clip0_168_15808">
<rect width="24" height="24" fill="white"/>
</clipPath>
</defs>
</svg>
