<svg width="24" height="25" viewBox="0 0 24 25" fill="none" xmlns="http://www.w3.org/2000/svg">
<path fill-rule="evenodd" clip-rule="evenodd" d="M14.7285 3.29493C15.6345 3.42743 16.4925 3.85143 17.217 4.51693C17.3105 3.66143 16.98 2.85443 16.3195 2.47343C16.1486 2.37327 16.0243 2.20959 15.9737 2.01812C15.9231 1.82665 15.9503 1.62293 16.0493 1.45141C16.1483 1.27989 16.3112 1.15451 16.5023 1.10262C16.6934 1.05073 16.8973 1.07654 17.0695 1.17443C18.602 2.05943 18.986 3.83993 18.5695 5.36293C20.8845 5.85543 22.7495 7.91093 22.7495 10.4999C22.7495 10.6988 22.6705 10.8896 22.5298 11.0303C22.3892 11.1709 22.1984 11.2499 21.9995 11.2499C21.8006 11.2499 21.6098 11.1709 21.4692 11.0303C21.3285 10.8896 21.2495 10.6988 21.2495 10.4999C21.2495 8.94143 20.2935 7.64393 18.9945 7.06893C19.5125 8.55893 19.252 10.2889 18.1195 11.5099C18.0531 11.5841 17.9725 11.6444 17.8825 11.6871C17.7926 11.7298 17.695 11.7542 17.5955 11.7588C17.496 11.7634 17.3966 11.7482 17.303 11.714C17.2095 11.6797 17.1237 11.6272 17.0507 11.5595C16.9777 11.4917 16.9189 11.4101 16.8777 11.3194C16.8366 11.2287 16.8139 11.1307 16.8111 11.0311C16.8082 10.9316 16.8252 10.8324 16.8611 10.7395C16.897 10.6466 16.951 10.5617 17.02 10.4899C17.908 9.53243 17.981 8.02243 17.263 6.91243C16.639 7.18643 16.005 7.81243 15.456 8.84243C14.9125 9.86093 14.507 11.1874 14.324 12.6934C13.5561 12.5644 12.7787 12.4997 12 12.4999C10.93 12.4999 9.886 12.6199 8.897 12.8494C9.559 9.17443 12.391 6.25443 16.019 5.46293C15.5435 5.07943 15.023 4.85393 14.511 4.77893C13.676 4.65643 12.7885 4.92093 12.036 5.68993C11.8957 5.82623 11.7077 5.90233 11.5121 5.902C11.3165 5.90168 11.1288 5.82495 10.989 5.68818C10.8491 5.55141 10.7683 5.36542 10.7636 5.16988C10.7589 4.97434 10.8308 4.78471 10.964 4.64143C12.034 3.54693 13.394 3.09893 14.7285 3.29493ZM18.444 15.6449C16.7645 14.4589 14.484 13.7499 12 13.7499C9.516 13.7499 7.236 14.4594 5.557 15.6449C3.9015 16.8134 2.779 18.4899 2.7505 20.4244C2.81717 20.3874 2.88267 20.3471 2.947 20.3034C3.55394 19.8954 4.26868 19.6775 5 19.6775C5.73132 19.6775 6.44606 19.8954 7.053 20.3034C7.47959 20.5941 7.98382 20.7495 8.5 20.7495C9.01618 20.7495 9.52041 20.5941 9.947 20.3034C10.5539 19.8954 11.2687 19.6775 12 19.6775C12.7313 19.6775 13.4461 19.8954 14.053 20.3034C14.4796 20.5941 14.9838 20.7495 15.5 20.7495C16.0162 20.7495 16.5204 20.5941 16.947 20.3034C17.5539 19.8954 18.2687 19.6775 19 19.6775C19.7313 19.6775 20.4461 19.8954 21.053 20.3034C21.1173 20.3468 21.1828 20.3871 21.2495 20.4244C21.221 18.4904 20.0985 16.8134 18.443 15.6444M17.7885 21.5444C18.511 21.0544 19.4885 21.0544 20.2105 21.5444C20.8856 22.004 21.6833 22.2498 22.5 22.2499C22.6989 22.2499 22.8897 22.3289 23.0303 22.4696C23.171 22.6103 23.25 22.801 23.25 22.9999C23.25 23.1988 23.171 23.3896 23.0303 23.5303C22.8897 23.6709 22.6989 23.7499 22.5 23.7499H1.5C1.30109 23.7499 1.11032 23.6709 0.96967 23.5303C0.829018 23.3896 0.75 23.1988 0.75 22.9999C0.75 22.801 0.829018 22.6103 0.96967 22.4696C1.11032 22.3289 1.30109 22.2499 1.5 22.2499C2.2975 22.2499 3.095 22.0149 3.789 21.5449C4.5115 21.0549 5.489 21.0549 6.211 21.5449C6.905 22.0149 7.7025 22.2499 8.5 22.2499C9.2975 22.2499 10.095 22.0149 10.789 21.5449C11.5115 21.0549 12.489 21.0549 13.211 21.5449C13.905 22.0149 14.7025 22.2499 15.5 22.2499C16.2975 22.2499 17.095 22.0149 17.789 21.5449" fill="#525252"/>
</svg>
