<svg width="24" height="25" viewBox="0 0 24 25" fill="none" xmlns="http://www.w3.org/2000/svg">
<path d="M19.7061 25H5V19.1182H19.7061V25ZM12.3535 0C15.3022 0.00022548 17.7442 2.16997 18.1699 5H19.3633C19.634 5 19.8535 5.21951 19.8535 5.49023V7.50977C19.8535 7.78049 19.634 8 19.3633 8H18.2344C18.2337 8.38055 18.2293 8.75394 18.2188 9.11816H18.4102C18.6548 9.11816 18.8534 9.31593 18.8535 9.56055V11.6748C18.8534 11.9194 18.6548 12.1182 18.4102 12.1182H17.8076C17.6422 12.6325 17.4147 13.0974 17.0977 13.501C18.6926 14.8497 19.7059 16.8649 19.7061 19.1172H5C5.00012 16.8073 6.06546 14.7464 7.73145 13.3984C7.43905 13.0191 7.21114 12.5899 7.03516 12.1182H6.29688C6.05223 12.1182 5.85366 11.9194 5.85352 11.6748V9.56055C5.85366 9.31593 6.05223 9.11816 6.29688 9.11816H6.50391C6.4851 8.7539 6.4745 8.38059 6.47266 8H5.34375C5.07302 8 4.85352 7.78049 4.85352 7.50977V5.49023C4.85352 5.21951 5.07302 5 5.34375 5H6.53613C6.96183 2.16982 9.40465 0 12.3535 0ZM12.8271 7.70605C12.7033 7.21129 11.9999 7.21136 11.876 7.70605L10.5039 13.1943C10.4266 13.5037 10.6607 13.8036 10.9795 13.8037H13.7236C14.0424 13.8036 14.2765 13.5036 14.1992 13.1943L12.8271 7.70605Z" fill="#525252"/>
</svg>
