<svg width="12" height="12" viewBox="0 0 12 12" fill="none" xmlns="http://www.w3.org/2000/svg">
<path fill-rule="evenodd" clip-rule="evenodd" d="M8.27649 11.0665C7.55649 11.04 5.51599 10.758 3.37899 8.62149C1.24249 6.48449 0.960988 4.44449 0.933988 3.72399C0.893988 2.62599 1.73499 1.55949 2.70649 1.14299C2.82348 1.09247 2.95159 1.07324 3.07825 1.08717C3.20492 1.10111 3.32578 1.14774 3.42899 1.22249C4.22899 1.80549 4.78099 2.68749 5.25499 3.38099C5.35928 3.53335 5.40387 3.71876 5.38027 3.90188C5.35666 4.08501 5.26651 4.25305 5.12699 4.37399L4.15149 5.09849C4.10436 5.13252 4.07118 5.1825 4.05813 5.23915C4.04507 5.29579 4.05301 5.35526 4.08049 5.40649C4.30149 5.80799 4.69449 6.40599 5.14449 6.85599C5.59449 7.30599 6.22099 7.72499 6.65049 7.97099C6.70434 8.00122 6.76773 8.00967 6.82762 7.9946C6.88751 7.97953 6.93935 7.9421 6.97249 7.88999L7.60749 6.92349C7.72423 6.76841 7.89645 6.66452 8.08808 6.63358C8.2797 6.60263 8.47587 6.64704 8.63549 6.75749C9.33899 7.24449 10.16 7.78699 10.761 8.55649C10.8418 8.66044 10.8932 8.78419 10.9098 8.91481C10.9265 9.04542 10.9077 9.1781 10.8555 9.29899C10.437 10.2755 9.37799 11.107 8.27649 11.0665Z" fill="#D4D4D4"/>
</svg>
