<svg width="25" height="24" viewBox="0 0 25 24" fill="none" xmlns="http://www.w3.org/2000/svg">
<path d="M15.355 1.99957C15.9248 1.99966 16.4716 2.22663 16.8745 2.62946C17.2773 3.03241 17.5034 3.57921 17.5034 4.14899V6.28278H20.3511C21.5379 6.28289 22.5005 7.24534 22.5005 8.43219V19.8521C22.5 21.0386 21.5376 22.0004 20.3511 22.0005H4.64893C3.46229 22.0005 2.49998 21.0387 2.49951 19.8521V8.43219C2.49951 7.24527 3.46199 6.28278 4.64893 6.28278H7.49561V4.14899C7.49567 3.57907 7.72253 3.03243 8.12549 2.62946C8.52849 2.22648 9.0751 1.99962 9.64502 1.99957H15.355ZM4.64893 7.72614C4.25913 7.72614 3.94287 8.04239 3.94287 8.43219V19.8521C3.94334 20.2415 4.25941 20.5572 4.64893 20.5572H20.3511C20.7405 20.5571 21.0567 20.2415 21.0571 19.8521V8.43219C21.0571 8.04245 20.7408 7.72625 20.3511 7.72614H4.64893ZM9.64502 3.44293C9.45791 3.44298 9.27832 3.51766 9.146 3.64996C9.01369 3.78228 8.93903 3.96189 8.93896 4.14899V6.28278H16.0601V4.14899C16.06 3.96203 15.9861 3.78225 15.854 3.64996C15.7217 3.5178 15.542 3.44302 15.355 3.44293H9.64502Z" fill="#A1A1A1"/>
<path d="M13.8846 9.88769C13.8846 9.67358 13.711 9.5 13.4969 9.5H11.5031C11.289 9.5 11.1154 9.67358 11.1154 9.88769V12.2277C11.1154 12.4418 10.9418 12.6154 10.7277 12.6154H8.38769C8.17358 12.6154 8 12.789 8 13.0031V14.9969C8 15.211 8.17358 15.3846 8.38769 15.3846H10.7277C10.9418 15.3846 11.1154 15.5582 11.1154 15.7723V18.1123C11.1154 18.3264 11.289 18.5 11.5031 18.5H13.4969C13.711 18.5 13.8846 18.3264 13.8846 18.1123V15.7723C13.8846 15.5582 14.0582 15.3846 14.2723 15.3846H16.6123C16.8264 15.3846 17 15.211 17 14.9969V13.0031C17 12.789 16.8264 12.6154 16.6123 12.6154H14.2723C14.0582 12.6154 13.8846 12.4418 13.8846 12.2277V9.88769Z" stroke="#A1A1A1" stroke-width="1.52" stroke-linecap="round" stroke-linejoin="round"/>
</svg>
