<svg width="24" height="24" viewBox="0 0 24 24" fill="none" xmlns="http://www.w3.org/2000/svg">
<path d="M14.8555 2C15.4251 2.00022 15.9722 2.22717 16.375 2.62988C16.7775 3.03279 17.0038 3.57985 17.0039 4.14941V6.2832H19.8516C21.0382 6.28358 22.001 7.24593 22.001 8.43262V19.8525C22.0003 21.0387 21.0378 22.0006 19.8516 22.001H4.14941C2.96292 22.001 2.0007 21.0389 2 19.8525V8.43262C2 7.24569 2.96248 6.28321 4.14941 6.2832H6.99609V4.14941C6.99616 3.5795 7.22301 3.03286 7.62598 2.62988C8.02897 2.22693 8.5756 2.00005 9.14551 2H14.8555ZM11.0029 9.5C10.7889 9.50008 10.6152 9.67363 10.6152 9.8877V12.2275C10.6152 12.4417 10.4417 12.6152 10.2275 12.6152H7.8877C7.67363 12.6152 7.50008 12.7889 7.5 13.0029V14.9971C7.50008 15.2111 7.67363 15.3848 7.8877 15.3848H10.2275C10.4417 15.3848 10.6152 15.5583 10.6152 15.7725V18.1123C10.6152 18.3264 10.7889 18.4999 11.0029 18.5H12.9971C13.2111 18.4999 13.3848 18.3264 13.3848 18.1123V15.7725C13.3848 15.5583 13.5583 15.3848 13.7725 15.3848H16.1123C16.3264 15.3848 16.4999 15.2111 16.5 14.9971V13.0029C16.4999 12.7889 16.3264 12.6152 16.1123 12.6152H13.7725C13.5583 12.6152 13.3848 12.4417 13.3848 12.2275V9.8877C13.3848 9.67363 13.2111 9.50008 12.9971 9.5H11.0029ZM9.14551 3.44336C8.95841 3.44341 8.77881 3.5181 8.64648 3.65039C8.51418 3.78271 8.43952 3.96231 8.43945 4.14941V6.2832H15.5605V4.14941C15.5605 3.96267 15.4863 3.78264 15.3545 3.65039C15.2223 3.51834 15.0423 3.44358 14.8555 3.44336H9.14551Z" fill="#404040"/>
</svg>
