<svg width="24" height="24" viewBox="0 0 24 24" fill="none" xmlns="http://www.w3.org/2000/svg">
<path d="M2.09619 6.2984C2.37335 6.16519 2.70274 6.20203 2.94287 6.3941L5.00244 8.04254C5.90095 8.76135 7.01781 9.15289 8.16846 9.15289H11.561C11.7947 10.158 12.3507 11.5614 13.3364 12.8062C14.3508 14.0869 15.8444 15.2271 17.9116 15.5513V19.4869C17.9116 21.1439 16.5676 22.4879 14.9106 22.4879C13.2538 22.4877 11.9106 21.1438 11.9106 19.4869V18.7535C11.9104 18.3854 11.6118 18.0875 11.2437 18.0875H8.31006C7.94199 18.0876 7.64329 18.3855 7.64307 18.7535V19.4869C7.64307 21.1439 6.30005 22.4879 4.64307 22.4879C2.9861 22.4878 1.64307 21.1439 1.64307 19.4869V7.0191C1.6431 6.71169 1.81916 6.43164 2.09619 6.2984ZM18.5776 3.28571C19.0195 3.28571 19.3784 3.64368 19.3784 4.08551V7.17535L23.2319 8.46051C23.5584 8.56948 23.7787 8.87513 23.7788 9.2193V10.6861C23.7788 12.748 22.1072 14.4192 20.0454 14.4195H19.0024C18.8823 14.1982 18.661 14.0367 18.3921 14.0054C16.6874 13.8083 15.4563 12.9042 14.5913 11.8121C13.7162 10.7069 13.2448 9.44097 13.0845 8.64313C13.0398 8.42089 12.9061 8.23944 12.729 8.12653L14.1177 5.34918C14.7501 4.08432 16.0433 3.28571 17.4575 3.28571H18.5776Z" fill="#404040"/>
</svg>
