<svg width="25" height="24" viewBox="0 0 25 24" fill="none" xmlns="http://www.w3.org/2000/svg">
<g clip-path="url(#clip0_83_22900)">
<path d="M21.3214 7.24994V19.4642C21.3214 19.8241 21.1784 20.1694 20.9239 20.4239C20.6695 20.6783 20.3242 20.8214 19.9643 20.8214H7.75" stroke="#404040" stroke-width="1.52" stroke-linecap="round" stroke-linejoin="round"/>
<path d="M16.5713 2.41882C17.7406 2.41882 18.6885 3.36675 18.6885 4.53601V16.0712C18.6885 17.2405 17.7406 18.1884 16.5713 18.1884H5.03613C3.86687 18.1884 2.91895 17.2405 2.91895 16.0712V4.53601C2.91895 3.36674 3.86687 2.41882 5.03613 2.41882H16.5713ZM8.58887 7.24402C8.50129 7.24215 8.4142 7.26351 8.33789 7.30652C8.2618 7.34945 8.19897 7.41252 8.15527 7.48816C8.11155 7.56401 8.08884 7.65061 8.08984 7.73816V12.868C8.07489 12.9612 8.08688 13.0571 8.125 13.1434C8.16313 13.2297 8.2258 13.3027 8.30469 13.3544C8.38361 13.406 8.47599 13.434 8.57031 13.4344C8.6644 13.4348 8.75674 13.4081 8.83594 13.3573L13.2744 10.7245C13.3475 10.6813 13.4081 10.6195 13.4502 10.5458C13.4923 10.4721 13.5136 10.3884 13.5137 10.3036C13.5137 10.2188 13.4922 10.1351 13.4502 10.0614C13.4082 9.98776 13.3474 9.92586 13.2744 9.88269L8.83594 7.31726C8.76165 7.27116 8.67627 7.24592 8.58887 7.24402Z" fill="#404040"/>
</g>
<defs>
<clipPath id="clip0_83_22900">
<rect width="19" height="19" fill="white" transform="translate(3 2.5)"/>
</clipPath>
</defs>
</svg>
