<svg width="28" height="28" viewBox="0 0 28 28" fill="none" xmlns="http://www.w3.org/2000/svg">
<rect width="28" height="28" rx="14" fill="#404040"/>
<path d="M17.5997 15.215L16.6386 15.9414L15.9121 14.9803" stroke="white" stroke-width="1.14286" stroke-linecap="round" stroke-linejoin="round"/>
<path d="M16.5856 15.8693C16.7442 15.5644 16.8519 15.2264 16.896 14.8652C17.093 13.2492 15.9428 11.7794 14.3268 11.5823C13.8153 11.52 13.3185 11.5925 12.8721 11.7722" stroke="white" stroke-width="1.14286" stroke-linecap="round" stroke-linejoin="round"/>
<path d="M10.3369 13.8461L11.2981 13.1196L12.0245 14.0808" stroke="white" stroke-width="1.14286" stroke-linecap="round" stroke-linejoin="round"/>
<path d="M11.3509 13.1919C11.1922 13.4968 11.0846 13.8347 11.0405 14.196C10.8435 15.812 11.9937 17.2817 13.6097 17.4789C14.1211 17.5412 14.618 17.4686 15.0644 17.289" stroke="white" stroke-width="1.14286" stroke-linecap="round" stroke-linejoin="round"/>
<path d="M21.4284 11.1427C21.4284 10.8396 21.308 10.5489 21.0937 10.3346C20.8794 10.1203 20.5887 9.99989 20.2856 9.99989H17.9999L16.2856 7.71417H11.7141L9.99986 9.99989H7.71415C7.41104 9.99989 7.12035 10.1203 6.90602 10.3346C6.6917 10.5489 6.57129 10.8396 6.57129 11.1427V19.1427C6.57129 19.4458 6.6917 19.7366 6.90602 19.9509C7.12035 20.1651 7.41104 20.2856 7.71415 20.2856H20.2856C20.5887 20.2856 20.8794 20.1651 21.0937 19.9509C21.308 19.7366 21.4284 19.4458 21.4284 19.1427V11.1427Z" stroke="white" stroke-width="1.14286" stroke-linecap="round" stroke-linejoin="round"/>
</svg>
