<svg width="24" height="24" viewBox="0 0 24 24" fill="none" xmlns="http://www.w3.org/2000/svg">
<path fill-rule="evenodd" clip-rule="evenodd" d="M3 4C3 3.44772 3.44772 3 4 3H16C16.5523 3 17 3.44772 17 4V5H18C19.6569 5 21 6.34315 21 8V10C21 11.6569 19.6569 13 18 13H16.6586C15.8349 15.3304 13.6124 17 11 17H9C5.68629 17 3 14.3137 3 11V4ZM17 7V11H18C18.5523 11 19 10.5523 19 10V8C19 7.44772 18.5523 7 18 7H17Z" fill="#525252"/>
<path d="M2 20C2 19.4477 2.44772 19 3 19H21C21.5523 19 22 19.4477 22 20C22 20.5523 21.5523 21 21 21H3C2.44772 21 2 20.5523 2 20Z" fill="#525252"/>
</svg>
