<svg width="24" height="25" viewBox="0 0 24 25" fill="none" xmlns="http://www.w3.org/2000/svg">
<path d="M7.80469 15.5188C7.99863 15.4802 8.20091 15.5017 8.38359 15.5773C8.56575 15.6531 8.72163 15.7813 8.83125 15.9453C8.94094 16.1097 9 16.3032 9 16.5008C8.99986 16.7655 8.89405 17.0189 8.70703 17.2063C8.51949 17.3938 8.26444 17.4992 7.99922 17.4992C7.8017 17.4991 7.60801 17.4425 7.44375 17.3328C7.2793 17.2229 7.15147 17.0655 7.07578 16.8828C7.00026 16.7004 6.98121 16.4999 7.01953 16.3063C7.05812 16.1123 7.15389 15.9328 7.29375 15.793C7.43351 15.6535 7.61099 15.5573 7.80469 15.5188Z" fill="#525252"/>
<path d="M10.8047 15.5188C10.9986 15.4802 11.2009 15.5017 11.3836 15.5773C11.5658 15.6531 11.7216 15.7812 11.8313 15.9453C11.941 16.1097 12 16.3032 12 16.5008C11.9999 16.7655 11.8941 17.0189 11.707 17.2063C11.5195 17.3938 11.2644 17.4992 10.9992 17.4992C10.8017 17.4991 10.608 17.4425 10.4438 17.3328C10.2793 17.2229 10.1515 17.0655 10.0758 16.8828C10.0003 16.7004 9.98121 16.4999 10.0195 16.3063C10.0581 16.1123 10.1539 15.9328 10.2938 15.793C10.4335 15.6534 10.611 15.5573 10.8047 15.5188Z" fill="#525252"/>
<path d="M10.3008 14.6328C9.99203 14.7494 9.71554 14.9414 9.49922 15.1906C9.28298 14.9416 9.00852 14.7494 8.7 14.6328L9.49922 12.7695L10.3008 14.6328Z" fill="#525252"/>
<path fill-rule="evenodd" clip-rule="evenodd" d="M12 0.5C18.6274 0.5 24 5.87258 24 12.5C24 19.1274 18.6274 24.5 12 24.5C5.37258 24.5 0 19.1274 0 12.5C0 5.87258 5.37258 0.5 12 0.5ZM15.4992 6.5C15.102 6.50019 14.7209 6.65766 14.4398 6.93828C14.1585 7.21958 13.9992 7.60218 13.9992 8V18.5H15V13.5008H18V12.5H15V11.4992H18V10.5008H15V9.5H18V8.49922H15V8C15 7.86756 15.0518 7.73982 15.1453 7.64609C15.2389 7.55249 15.3669 7.50097 15.4992 7.50078H18V6.5H15.4992ZM7.5 6.5C7.49886 7.55722 7.71293 8.60373 8.13047 9.575L8.95547 11.4992L7.65469 14.5344C7.34032 14.5887 7.04406 14.719 6.78984 14.9117C6.53536 15.1048 6.32925 15.3567 6.19219 15.6453C6.0553 15.9337 5.99123 16.252 6.00234 16.5711C6.01362 16.89 6.10117 17.2024 6.25781 17.4805C6.41459 17.7584 6.63536 17.9948 6.90234 18.1695C7.16965 18.3445 7.47514 18.4536 7.79297 18.4859C8.11063 18.5182 8.43123 18.4722 8.72813 18.3547C9.02517 18.2371 9.28962 18.0497 9.49922 17.8086C9.76507 18.117 10.1196 18.338 10.5141 18.4391C10.9085 18.5401 11.3257 18.5161 11.707 18.3734C12.0879 18.2307 12.4158 17.9746 12.6469 17.6398C12.878 17.3049 13.0025 16.9077 13.0008 16.5008C12.9996 16.0309 12.8324 15.5757 12.5297 15.2164C12.2269 14.8571 11.8066 14.6152 11.3438 14.5344L10.043 11.4992L10.868 9.575C11.2856 8.60361 11.5019 7.55737 11.5008 6.5H10.5C10.5013 7.42198 10.3132 8.33416 9.94922 9.18125C9.59545 10.0044 9.50412 10.2197 9.49922 10.2313L9.04922 9.18125C8.68535 8.33428 8.49951 7.42183 8.50078 6.5H7.5Z" fill="#525252"/>
</svg>
