<svg width="36" height="36" viewBox="0 0 36 36" fill="none" xmlns="http://www.w3.org/2000/svg">
<ellipse cx="18.4286" cy="32.5" rx="6.42857" ry="3.21429" fill="#D4D4D4"/>
<path d="M18 0.5C20.6693 0.5 23.2791 1.29599 25.499 2.78809C27.7189 4.28019 29.4495 6.40162 30.4717 8.88379C31.4938 11.3661 31.7613 14.098 31.2402 16.7334C30.7191 19.3689 29.4331 21.79 27.5449 23.6895L19.0635 32.2207C18.477 32.8104 17.523 32.8104 16.9365 32.2207L8.45508 23.6895C6.56686 21.79 5.28088 19.3689 4.75977 16.7334C4.23872 14.098 4.50619 11.3661 5.52832 8.88379C6.55049 6.40162 8.28108 4.28019 10.501 2.78809C12.7209 1.29599 15.3307 0.5 18 0.5Z" fill="#00A63E" stroke="white"/>
<path d="M18 12.5276C20.0404 12.5276 21.0605 14.6911 21.0605 16.0989C21.0604 17.5067 19.4078 18.139 18 18.139C16.5922 18.139 14.9396 17.5066 14.9395 16.0989C14.9395 14.6911 15.9596 12.5277 18 12.5276ZM13.9092 12.0276C14.4724 12.0279 14.9286 12.7131 14.9287 13.5579C14.9287 14.4029 14.4725 15.0879 13.9092 15.0882C13.3457 15.0882 12.8887 14.4031 12.8887 13.5579C12.8888 12.7129 13.3458 12.0276 13.9092 12.0276ZM22.0918 12.0276C22.655 12.0279 23.1112 12.7131 23.1113 13.5579C23.1113 14.4029 22.6551 15.0879 22.0918 15.0882C21.5283 15.0882 21.0713 14.4031 21.0713 13.5579C21.0714 12.7129 21.5284 12.0276 22.0918 12.0276ZM16.2451 8.45734C16.9325 8.45758 17.4892 9.29345 17.4893 10.3245C17.4893 11.3556 16.9325 12.1915 16.2451 12.1917C15.5576 12.1917 15 11.3558 15 10.3245C15 9.2933 15.5576 8.45734 16.2451 8.45734ZM19.7559 8.45734C20.4433 8.45753 21.0009 9.29341 21.001 10.3245C21.001 11.3557 20.4433 12.1915 19.7559 12.1917C19.0683 12.1917 18.5107 11.3558 18.5107 10.3245C18.5108 9.29329 19.0684 8.45734 19.7559 8.45734Z" fill="#FAFAFA"/>
</svg>
