<svg width="12" height="13" viewBox="0 0 12 13" fill="none" xmlns="http://www.w3.org/2000/svg">
<g clip-path="url(#clip0_76_7573)">
<path d="M9.86386 5.06837L5.56747 1.85963C5.23191 1.60953 4.83485 1.45891 4.42031 1.42447C4.00578 1.39003 3.58998 1.47312 3.21901 1.66452C2.84804 1.85593 2.5364 2.14817 2.31864 2.50885C2.10089 2.86952 1.98553 3.28453 1.98535 3.70786V10.1253C1.98543 10.5489 2.10079 10.9641 2.31865 11.3249C2.5365 11.6857 2.84833 11.9781 3.21951 12.1695C3.5907 12.3609 4.00673 12.4438 4.42143 12.4092C4.83614 12.3745 5.23329 12.2236 5.56883 11.9731L9.86521 8.76437C10.1504 8.55149 10.3823 8.27323 10.5422 7.95213C10.702 7.63102 10.7854 7.27611 10.7854 6.91614C10.7854 6.55616 10.702 6.20125 10.5422 5.88015C10.3823 5.55905 10.1504 5.28079 9.86521 5.06791L9.86386 5.06837ZM9.33064 8.02498L5.03425 11.2337C4.83295 11.3834 4.59487 11.4735 4.34637 11.4941C4.09787 11.5146 3.84863 11.4647 3.62625 11.35C3.40387 11.2352 3.21702 11.0601 3.08638 10.844C2.95574 10.6278 2.88641 10.3791 2.88606 10.1253V3.70786C2.88356 3.45362 2.95159 3.20381 3.08232 2.98715C3.21305 2.77049 3.40118 2.59576 3.62509 2.48305C3.81555 2.38444 4.02615 2.33293 4.23983 2.33269C4.5262 2.33381 4.80467 2.42845 5.03425 2.60269L9.33064 5.81142C9.50155 5.93917 9.64051 6.10607 9.73629 6.29863C9.83208 6.49118 9.88199 6.70398 9.88199 6.9198C9.88199 7.13563 9.83208 7.34843 9.73629 7.54098C9.64051 7.73354 9.50155 7.90044 9.33064 8.02819V8.02498Z" fill="#525252"/>
</g>
<defs>
<clipPath id="clip0_76_7573">
<rect width="12" height="12" fill="white" transform="translate(0 0.916626)"/>
</clipPath>
</defs>
</svg>
