<svg width="12" height="13" viewBox="0 0 12 13" fill="none" xmlns="http://www.w3.org/2000/svg">
<g clip-path="url(#clip0_137_40609)">
<path fill-rule="evenodd" clip-rule="evenodd" d="M7.36425 2.31409C7.81725 2.38034 8.24625 2.59234 8.6085 2.92509C8.65525 2.49734 8.49 2.09384 8.15975 1.90334C8.07432 1.85326 8.01217 1.77142 7.98686 1.67569C7.96155 1.57995 7.97513 1.47809 8.02465 1.39233C8.07416 1.30657 8.15559 1.24388 8.25115 1.21794C8.34672 1.19199 8.44867 1.2049 8.53475 1.25384C9.301 1.69634 9.493 2.58659 9.28475 3.34809C10.4423 3.59434 11.3748 4.62209 11.3748 5.91659C11.3748 6.01605 11.3352 6.11143 11.2649 6.18176C11.1946 6.25208 11.0992 6.29159 10.9998 6.29159C10.9003 6.29159 10.8049 6.25208 10.7346 6.18176C10.6643 6.11143 10.6248 6.01605 10.6248 5.91659C10.6248 5.13734 10.1467 4.48859 9.49725 4.20109C9.75625 4.94609 9.626 5.81109 9.05975 6.42159C9.02653 6.45869 8.98625 6.48881 8.94126 6.51017C8.89628 6.53154 8.84749 6.54373 8.79774 6.54604C8.74799 6.54834 8.69828 6.54072 8.65151 6.5236C8.60474 6.50649 8.56185 6.48023 8.52534 6.44636C8.48883 6.41249 8.45943 6.37168 8.43886 6.32633C8.41829 6.28097 8.40696 6.23197 8.40553 6.18219C8.4041 6.13241 8.41261 6.08284 8.43054 6.03638C8.44848 5.98992 8.47549 5.9475 8.51 5.91159C8.954 5.43284 8.9905 4.67784 8.6315 4.12284C8.3195 4.25984 8.0025 4.57284 7.728 5.08784C7.45625 5.59709 7.2535 6.26034 7.162 7.01334C6.77803 6.94883 6.38935 6.91647 6 6.91659C5.465 6.91659 4.943 6.97659 4.4485 7.09134C4.7795 5.25384 6.1955 3.79384 8.0095 3.39809C7.77175 3.20634 7.5115 3.09359 7.2555 3.05609C6.838 2.99484 6.39425 3.12709 6.018 3.51159C5.94785 3.57974 5.85386 3.61779 5.75606 3.61763C5.65826 3.61746 5.56439 3.5791 5.49448 3.51072C5.42456 3.44233 5.38413 3.34934 5.38179 3.25157C5.37946 3.15379 5.41542 3.05898 5.482 2.98734C6.017 2.44009 6.697 2.21609 7.36425 2.31409ZM9.222 8.48909C8.38225 7.89609 7.242 7.54159 6 7.54159C4.758 7.54159 3.618 7.89634 2.7785 8.48909C1.95075 9.07334 1.3895 9.91159 1.37525 10.8788C1.40858 10.8603 1.44133 10.8402 1.4735 10.8183C1.77697 10.6143 2.13434 10.5054 2.5 10.5054C2.86566 10.5054 3.22303 10.6143 3.5265 10.8183C3.7398 10.9637 3.99191 11.0414 4.25 11.0414C4.50809 11.0414 4.7602 10.9637 4.9735 10.8183C5.27697 10.6143 5.63434 10.5054 6 10.5054C6.36566 10.5054 6.72303 10.6143 7.0265 10.8183C7.2398 10.9637 7.49191 11.0414 7.75 11.0414C8.00809 11.0414 8.2602 10.9637 8.4735 10.8183C8.77697 10.6143 9.13434 10.5054 9.5 10.5054C9.86566 10.5054 10.223 10.6143 10.5265 10.8183C10.5587 10.84 10.5914 10.8602 10.6248 10.8788C10.6105 9.91184 10.0493 9.07334 9.2215 8.48884M8.89425 11.4388C9.2555 11.1938 9.74425 11.1938 10.1053 11.4388C10.4428 11.6686 10.8417 11.7915 11.25 11.7916C11.3495 11.7916 11.4448 11.8311 11.5152 11.9014C11.5855 11.9718 11.625 12.0671 11.625 12.1666C11.625 12.266 11.5855 12.3614 11.5152 12.4318C11.4448 12.5021 11.3495 12.5416 11.25 12.5416H0.75C0.650544 12.5416 0.555161 12.5021 0.484835 12.4318C0.414509 12.3614 0.375 12.266 0.375 12.1666C0.375 12.0671 0.414509 11.9718 0.484835 11.9014C0.555161 11.8311 0.650544 11.7916 0.75 11.7916C1.14875 11.7916 1.5475 11.6741 1.8945 11.4391C2.25575 11.1941 2.7445 11.1941 3.1055 11.4391C3.4525 11.6741 3.85125 11.7916 4.25 11.7916C4.64875 11.7916 5.0475 11.6741 5.3945 11.4391C5.75575 11.1941 6.2445 11.1941 6.6055 11.4391C6.9525 11.6741 7.35125 11.7916 7.75 11.7916C8.14875 11.7916 8.5475 11.6741 8.8945 11.4391" fill="#525252"/>
</g>
<defs>
<clipPath id="clip0_137_40609">
<rect width="12" height="12" fill="white" transform="translate(0 0.916626)"/>
</clipPath>
</defs>
</svg>
