<svg width="12" height="13" viewBox="0 0 12 13" fill="none" xmlns="http://www.w3.org/2000/svg">
<path fill-rule="evenodd" clip-rule="evenodd" d="M3.87473 2.69183C4.57508 2.74258 5.30484 3.08398 6.00341 3.77493C6.7018 3.08417 7.43092 2.74342 8.13062 2.69381C8.9203 2.6378 9.61841 2.95697 10.1235 3.46052C11.1166 4.45058 11.4284 6.24209 10.1962 7.47435C10.192 7.47851 10.1877 7.48257 10.1834 7.48651L6.24316 11.0556C6.10708 11.1788 5.89973 11.1788 5.76365 11.0556L1.82341 7.48651C1.81905 7.48257 1.81479 7.47851 1.81064 7.47435C0.571953 6.23567 0.882134 4.44395 1.87845 3.45467C2.38478 2.9519 3.08431 2.63457 3.87473 2.69183Z" fill="#525252"/>
</svg>
