<svg width="24" height="24" viewBox="0 0 24 24" fill="none" xmlns="http://www.w3.org/2000/svg">
<path fill-rule="evenodd" clip-rule="evenodd" d="M21 12.2043C21 11.5659 20.9411 10.953 20.833 10.3638H12.1846V13.8448H17.1269C16.9141 14.9698 16.267 15.9227 15.2946 16.5611V18.8187H18.2628C19.9982 17.252 21 14.9452 21 12.2043Z" fill="#3E82F1"/>
<path fill-rule="evenodd" clip-rule="evenodd" d="M12.1844 20.9992C14.6638 20.9992 16.7426 20.193 18.2617 18.8187L15.2936 16.5611C14.4709 17.1011 13.4198 17.4199 12.1835 17.4199C9.79152 17.4199 7.76718 15.8371 7.04482 13.71H3.97803V16.0414C5.48936 18.9823 8.59422 20.9992 12.1844 20.9992Z" fill="#32A753"/>
<path fill-rule="evenodd" clip-rule="evenodd" d="M7.04533 13.7099C6.86193 13.1699 6.75725 12.5934 6.75725 11.9999C6.75725 11.4065 6.86193 10.83 7.04533 10.29V7.95856H3.97768C3.35567 9.17343 3.00098 10.5477 3.00098 11.9999C3.00098 13.4522 3.35567 14.8265 3.97768 16.0413L7.04533 13.7099Z" fill="#F9BB00"/>
<path fill-rule="evenodd" clip-rule="evenodd" d="M12.1844 6.58008C13.5322 6.58008 14.7434 7.03449 15.695 7.92551L18.3292 5.34401C16.7383 3.8926 14.6595 3.00073 12.1844 3.00073C8.59422 3.00073 5.48936 5.01761 3.97803 7.95858L7.04568 10.29C7.76804 8.16289 9.79239 6.58008 12.1844 6.58008Z" fill="#E74133"/>
</svg>
