<svg width="36" height="36" viewBox="0 0 36 36" fill="none" xmlns="http://www.w3.org/2000/svg">
<ellipse cx="18.4286" cy="32.5" rx="6.42857" ry="3.21429" fill="#D4D4D4"/>
<path d="M18 0.5C20.6693 0.5 23.2791 1.29599 25.499 2.78809C27.7189 4.28019 29.4495 6.40162 30.4717 8.88379C31.4938 11.3661 31.7613 14.098 31.2402 16.7334C30.7191 19.3689 29.4331 21.79 27.5449 23.6895L19.0635 32.2207C18.477 32.8104 17.523 32.8104 16.9365 32.2207L8.45508 23.6895C6.56686 21.79 5.28088 19.3689 4.75977 16.7334C4.23872 14.098 4.50619 11.3661 5.52832 8.88379C6.55049 6.40162 8.28108 4.28019 10.501 2.78809C12.7209 1.29599 15.3307 0.5 18 0.5Z" fill="#00A63E" stroke="white"/>
<g clip-path="url(#clip0_168_15685)">
<path fill-rule="evenodd" clip-rule="evenodd" d="M19.3643 8.8548C19.8173 8.92105 20.2462 9.13305 20.6085 9.4658C20.6552 9.03805 20.49 8.63455 20.1597 8.44405C20.0743 8.39397 20.0122 8.31213 19.9869 8.2164C19.9615 8.12066 19.9751 8.0188 20.0246 7.93304C20.0742 7.84728 20.1556 7.78459 20.2512 7.75865C20.3467 7.7327 20.4487 7.74561 20.5347 7.79455C21.301 8.23705 21.493 9.1273 21.2847 9.8888C22.4423 10.1351 23.3748 11.1628 23.3748 12.4573C23.3748 12.5568 23.3352 12.6521 23.2649 12.7225C23.1946 12.7928 23.0992 12.8323 22.9998 12.8323C22.9003 12.8323 22.8049 12.7928 22.7346 12.7225C22.6643 12.6521 22.6248 12.5568 22.6248 12.4573C22.6248 11.6781 22.1467 11.0293 21.4972 10.7418C21.7562 11.4868 21.626 12.3518 21.0597 12.9623C21.0265 12.9994 20.9862 13.0295 20.9413 13.0509C20.8963 13.0723 20.8475 13.0844 20.7977 13.0867C20.748 13.0891 20.6983 13.0814 20.6515 13.0643C20.6047 13.0472 20.5618 13.0209 20.5253 12.9871C20.4888 12.9532 20.4594 12.9124 20.4389 12.867C20.4183 12.8217 20.407 12.7727 20.4055 12.7229C20.4041 12.6731 20.4126 12.6236 20.4305 12.5771C20.4485 12.5306 20.4755 12.4882 20.51 12.4523C20.954 11.9736 20.9905 11.2186 20.6315 10.6636C20.3195 10.8006 20.0025 11.1136 19.728 11.6286C19.4563 12.1378 19.2535 12.8011 19.162 13.5541C18.778 13.4895 18.3893 13.4572 18 13.4573C17.465 13.4573 16.943 13.5173 16.4485 13.6321C16.7795 11.7946 18.1955 10.3346 20.0095 9.9388C19.7717 9.74705 19.5115 9.6343 19.2555 9.5968C18.838 9.53555 18.3942 9.6678 18.018 10.0523C17.9479 10.1205 17.8539 10.1585 17.7561 10.1583C17.6583 10.1582 17.5644 10.1198 17.4945 10.0514C17.4246 9.98304 17.3841 9.89005 17.3818 9.79228C17.3795 9.6945 17.4154 9.59969 17.482 9.52805C18.017 8.9808 18.697 8.7568 19.3643 8.8548ZM21.222 15.0298C20.3822 14.4368 19.242 14.0823 18 14.0823C16.758 14.0823 15.618 14.4371 14.7785 15.0298C13.9508 15.6141 13.3895 16.4523 13.3752 17.4196C13.4086 17.4011 13.4413 17.3809 13.4735 17.3591C13.777 17.1551 14.1343 17.0461 14.5 17.0461C14.8657 17.0461 15.223 17.1551 15.5265 17.3591C15.7398 17.5044 15.9919 17.5821 16.25 17.5821C16.5081 17.5821 16.7602 17.5044 16.9735 17.3591C17.277 17.1551 17.6343 17.0461 18 17.0461C18.3657 17.0461 18.723 17.1551 19.0265 17.3591C19.2398 17.5044 19.4919 17.5821 19.75 17.5821C20.0081 17.5821 20.2602 17.5044 20.4735 17.3591C20.777 17.1551 21.1343 17.0461 21.5 17.0461C21.8657 17.0461 22.223 17.1551 22.5265 17.3591C22.5587 17.3807 22.5914 17.4009 22.6248 17.4196C22.6105 16.4526 22.0493 15.6141 21.2215 15.0296M20.8942 17.9796C21.2555 17.7346 21.7443 17.7346 22.1053 17.9796C22.4428 18.2093 22.8417 18.3322 23.25 18.3323C23.3495 18.3323 23.4448 18.3718 23.5152 18.4421C23.5855 18.5125 23.625 18.6078 23.625 18.7073C23.625 18.8068 23.5855 18.9021 23.5152 18.9725C23.4448 19.0428 23.3495 19.0823 23.25 19.0823H12.75C12.6505 19.0823 12.5552 19.0428 12.4848 18.9725C12.4145 18.9021 12.375 18.8068 12.375 18.7073C12.375 18.6078 12.4145 18.5125 12.4848 18.4421C12.5552 18.3718 12.6505 18.3323 12.75 18.3323C13.1488 18.3323 13.5475 18.2148 13.8945 17.9798C14.2558 17.7348 14.7445 17.7348 15.1055 17.9798C15.4525 18.2148 15.8512 18.3323 16.25 18.3323C16.6487 18.3323 17.0475 18.2148 17.3945 17.9798C17.7557 17.7348 18.2445 17.7348 18.6055 17.9798C18.9525 18.2148 19.3513 18.3323 19.75 18.3323C20.1487 18.3323 20.5475 18.2148 20.8945 17.9798" fill="white"/>
</g>
<defs>
<clipPath id="clip0_168_15685">
<rect width="12" height="12" fill="white" transform="translate(12 7.45734)"/>
</clipPath>
</defs>
</svg>
