<svg width="36" height="36" viewBox="0 0 36 36" fill="none" xmlns="http://www.w3.org/2000/svg">
<ellipse cx="18.4286" cy="32.5" rx="6.42857" ry="3.21429" fill="#D4D4D4"/>
<path d="M18 0.5C20.6693 0.5 23.2791 1.29599 25.499 2.78809C27.7189 4.28019 29.4495 6.40162 30.4717 8.88379C31.4938 11.3661 31.7613 14.098 31.2402 16.7334C30.7191 19.3689 29.4331 21.79 27.5449 23.6895L19.0635 32.2207C18.477 32.8104 17.523 32.8104 16.9365 32.2207L8.45508 23.6895C6.56686 21.79 5.28088 19.3689 4.75977 16.7334C4.23872 14.098 4.50619 11.3661 5.52832 8.88379C6.55049 6.40162 8.28108 4.28019 10.501 2.78809C12.7209 1.29599 15.3307 0.5 18 0.5Z" fill="#00A63E" stroke="white"/>
<path fill-rule="evenodd" clip-rule="evenodd" d="M13.5 9.45734C13.5 9.18119 13.7239 8.95734 14 8.95734H20C20.2761 8.95734 20.5 9.18119 20.5 9.45734V9.95734H21C21.8284 9.95734 22.5 10.6289 22.5 11.4573V12.4573C22.5 13.2858 21.8284 13.9573 21 13.9573H20.3293C19.9175 15.1225 18.8062 15.9573 17.5 15.9573H16.5C14.8431 15.9573 13.5 14.6142 13.5 12.9573V9.45734ZM20.5 10.9573V12.9573H21C21.2761 12.9573 21.5 12.7335 21.5 12.4573V11.4573C21.5 11.1812 21.2761 10.9573 21 10.9573H20.5Z" fill="white"/>
<path d="M13 17.4573C13 17.1812 13.2239 16.9573 13.5 16.9573H22.5C22.7761 16.9573 23 17.1812 23 17.4573C23 17.7335 22.7761 17.9573 22.5 17.9573H13.5C13.2239 17.9573 13 17.7335 13 17.4573Z" fill="white"/>
</svg>
