<svg width="36" height="36" viewBox="0 0 36 36" fill="none" xmlns="http://www.w3.org/2000/svg">
<ellipse cx="18.4286" cy="32.5" rx="6.42857" ry="3.21429" fill="#D4D4D4"/>
<path d="M18 0.5C20.6693 0.5 23.2791 1.29599 25.499 2.78809C27.7189 4.28019 29.4495 6.40162 30.4717 8.88379C31.4938 11.3661 31.7613 14.098 31.2402 16.7334C30.7191 19.3689 29.4331 21.79 27.5449 23.6895L19.0635 32.2207C18.477 32.8104 17.523 32.8104 16.9365 32.2207L8.45508 23.6895C6.56686 21.79 5.28088 19.3689 4.75977 16.7334C4.23872 14.098 4.50619 11.3661 5.52832 8.88379C6.55049 6.40162 8.28108 4.28019 10.501 2.78809C12.7209 1.29599 15.3307 0.5 18 0.5Z" fill="#00A63E" stroke="white"/>
<g clip-path="url(#clip0_168_15730)">
<path d="M17.1431 15.39C17.1431 15.39 16.5103 15.2592 16.2514 15.39C16.0586 15.4873 15.3125 15.784 14.9445 15.9293V18.6563C15.1575 18.6427 15.5814 18.6178 15.7625 18.6258C16.3023 18.6501 16.7053 18.792 17.1128 18.9354C17.4931 19.0693 17.8773 19.2047 18.3795 19.2469C18.5062 19.2574 18.6289 19.2712 18.7481 19.2844C19.1787 19.3325 19.5598 19.3749 19.8753 19.2469C20.2781 19.0835 22.5787 17.8415 22.8662 17.5147C23.1537 17.1878 23.0101 16.3051 22.1184 16.4685C21.6787 16.5491 21.1684 16.7812 20.7062 16.9914C20.2312 17.2072 19.8065 17.4005 19.559 17.3839C19.0701 17.3512 17.7756 17.0896 17.7756 17.0896L19.2617 17.1096C19.2617 17.1096 19.4717 17.1219 19.7601 16.8936C20.049 16.6652 20.3067 16.0111 19.8753 16.0111C19.444 16.0111 18.9837 15.8474 18.9837 15.8474L17.1431 15.39ZM13 15.6396C13 15.558 13.0293 15.4797 13.0814 15.422C13.1335 15.3643 13.2041 15.3318 13.2778 15.3318H14.1111C14.1848 15.3318 14.2554 15.3643 14.3075 15.422C14.3596 15.4797 14.3889 15.558 14.3889 15.6396V19.0241C14.3889 19.1057 14.3596 19.184 14.3075 19.2417C14.2554 19.2994 14.1848 19.3318 14.1111 19.3318H13.2778C13.2041 19.3318 13.1335 19.2994 13.0814 19.2417C13.0293 19.184 13 19.1057 13 19.0241V15.6396Z" fill="white"/>
<path d="M21.0104 8.41523C21.2071 8.3332 21.4184 8.29095 21.6319 8.291C21.8454 8.29095 22.0567 8.3332 22.2533 8.41523C22.45 8.49727 22.628 8.61743 22.7767 8.7686C23.0803 9.07808 23.25 9.49204 23.25 9.92289C23.25 10.3537 23.0803 10.7677 22.7767 11.0772L20.2512 13.624L17.7233 11.0772C17.4197 10.7677 17.25 10.3537 17.25 9.92289C17.25 9.49204 17.4197 9.07808 17.7233 8.7686C17.872 8.61736 18.05 8.49714 18.2466 8.41504C18.4433 8.33295 18.6546 8.29065 18.8681 8.29065C19.0816 8.29065 19.293 8.33295 19.4896 8.41504C19.6863 8.49714 19.8642 8.61736 20.013 8.7686L20.2512 9.00858L20.487 8.7686C20.6358 8.61743 20.8138 8.49727 21.0104 8.41523Z" fill="white"/>
</g>
<defs>
<clipPath id="clip0_168_15730">
<rect width="12" height="12" fill="white" transform="translate(12 7.45734)"/>
</clipPath>
</defs>
</svg>
