<svg width="36" height="36" viewBox="0 0 36 36" fill="none" xmlns="http://www.w3.org/2000/svg">
<ellipse cx="18.4286" cy="32.5" rx="6.42857" ry="3.21429" fill="#D4D4D4"/>
<path d="M18 0.5C20.6693 0.5 23.2791 1.29599 25.499 2.78809C27.7189 4.28019 29.4495 6.40162 30.4717 8.88379C31.4938 11.3661 31.7613 14.098 31.2402 16.7334C30.7191 19.3689 29.4331 21.79 27.5449 23.6895L19.0635 32.2207C18.477 32.8104 17.523 32.8104 16.9365 32.2207L8.45508 23.6895C6.56686 21.79 5.28088 19.3689 4.75977 16.7334C4.23872 14.098 4.50619 11.3661 5.52832 8.88379C6.55049 6.40162 8.28108 4.28019 10.501 2.78809C12.7209 1.29599 15.3307 0.5 18 0.5Z" fill="#00A63E" stroke="white"/>
<g clip-path="url(#clip0_168_15721)">
<path d="M19.4284 9.21448C19.4284 8.99357 19.2493 8.81448 19.0284 8.81448H16.9712C16.7503 8.81448 16.5712 8.99357 16.5712 9.21448V11.6288C16.5712 11.8497 16.3921 12.0288 16.1712 12.0288H13.7569C13.536 12.0288 13.3569 12.2079 13.3569 12.4288V14.4859C13.3569 14.7068 13.536 14.8859 13.7569 14.8859H16.1712C16.3921 14.8859 16.5712 15.065 16.5712 15.2859V17.7002C16.5712 17.9211 16.7503 18.1002 16.9712 18.1002H19.0284C19.2493 18.1002 19.4284 17.9211 19.4284 17.7002V15.2859C19.4284 15.065 19.6074 14.8859 19.8284 14.8859H22.2426C22.4636 14.8859 22.6426 14.7068 22.6426 14.4859V12.4288C22.6426 12.2079 22.4636 12.0288 22.2426 12.0288H19.8284C19.6074 12.0288 19.4284 11.8497 19.4284 11.6288V9.21448Z" fill="white"/>
</g>
<defs>
<clipPath id="clip0_168_15721">
<rect width="10" height="10" fill="white" transform="translate(13 8.45734)"/>
</clipPath>
</defs>
</svg>
