<svg width="36" height="36" viewBox="0 0 36 36" fill="none" xmlns="http://www.w3.org/2000/svg">
<ellipse cx="18.4286" cy="32.5" rx="6.42857" ry="3.21429" fill="#D4D4D4"/>
<path d="M18 0.5C20.6693 0.5 23.2791 1.29599 25.499 2.78809C27.7189 4.28019 29.4495 6.40162 30.4717 8.88379C31.4938 11.3661 31.7613 14.098 31.2402 16.7334C30.7191 19.3689 29.4331 21.79 27.5449 23.6895L19.0635 32.2207C18.477 32.8104 17.523 32.8104 16.9365 32.2207L8.45508 23.6895C6.56686 21.79 5.28088 19.3689 4.75977 16.7334C4.23872 14.098 4.50619 11.3661 5.52832 8.88379C6.55049 6.40162 8.28108 4.28019 10.501 2.78809C12.7209 1.29599 15.3307 0.5 18 0.5Z" fill="#00A63E" stroke="white"/>
<g clip-path="url(#clip0_168_15676)">
<path fill-rule="evenodd" clip-rule="evenodd" d="M18 19.4573C21.3137 19.4573 24 16.771 24 13.4573C24 10.1436 21.3137 7.45734 18 7.45734C14.6863 7.45734 12 10.1436 12 13.4573C12 16.771 14.6863 19.4573 18 19.4573ZM15.9 10.9073C15.9 10.6588 15.6985 10.4573 15.45 10.4573C15.2015 10.4573 15 10.6588 15 10.9073V12.1073C15 12.6872 15.4701 13.1573 16.05 13.1573H16.2V16.0073C16.2 16.2559 16.4015 16.4573 16.65 16.4573C16.8985 16.4573 17.1 16.2559 17.1 16.0073V13.1573H17.25C17.8299 13.1573 18.3 12.6872 18.3 12.1073V10.9073C18.3 10.6588 18.0985 10.4573 17.85 10.4573C17.6015 10.4573 17.4 10.6588 17.4 10.9073V12.1073C17.4 12.1902 17.3328 12.2573 17.25 12.2573H17.1V10.9073C17.1 10.6588 16.8985 10.4573 16.65 10.4573C16.4015 10.4573 16.2 10.6588 16.2 10.9073V12.2573H16.05C15.9672 12.2573 15.9 12.1902 15.9 12.1073V10.9073ZM19.8 14.0573H19.4325C19.0229 14.0573 18.7337 13.6561 18.8632 13.2676L19.6383 10.9424C19.7202 10.6967 19.8954 10.5205 20.1331 10.4727C20.1704 10.4627 20.2096 10.4573 20.25 10.4573C20.4985 10.4573 20.7 10.6588 20.7 10.9073V16.0073C20.7 16.2559 20.4985 16.4573 20.25 16.4573C20.0015 16.4573 19.8 16.2559 19.8 16.0073V14.0573Z" fill="white"/>
</g>
<defs>
<clipPath id="clip0_168_15676">
<rect width="12" height="12" fill="white" transform="translate(12 7.45734)"/>
</clipPath>
</defs>
</svg>
