<svg width="36" height="36" viewBox="0 0 36 36" fill="none" xmlns="http://www.w3.org/2000/svg">
<ellipse cx="18.4286" cy="32.5" rx="6.42857" ry="3.21429" fill="#D4D4D4"/>
<path d="M18 0.5C20.6693 0.5 23.2791 1.29599 25.499 2.78809C27.7189 4.28019 29.4495 6.40162 30.4717 8.88379C31.4938 11.3661 31.7613 14.098 31.2402 16.7334C30.7191 19.3689 29.4331 21.79 27.5449 23.6895L19.0635 32.2207C18.477 32.8104 17.523 32.8104 16.9365 32.2207L8.45508 23.6895C6.56686 21.79 5.28088 19.3689 4.75977 16.7334C4.23872 14.098 4.50619 11.3661 5.52832 8.88379C6.55049 6.40162 8.28108 4.28019 10.501 2.78809C12.7209 1.29599 15.3307 0.5 18 0.5Z" fill="#00A63E" stroke="white"/>
<g clip-path="url(#clip0_97_9554)">
<path fill-rule="evenodd" clip-rule="evenodd" d="M16.1408 8.31074C15.996 8.17287 15.7685 8.17287 15.6237 8.31074L12.8664 10.9357C12.7921 11.0065 12.75 11.1047 12.75 11.2073V18.3323C12.75 18.5394 12.9179 18.7073 13.125 18.7073H15.1322V17.2073C15.1322 16.7931 15.468 16.4573 15.8822 16.4573C16.2965 16.4573 16.6322 16.7931 16.6322 17.2073V18.7073H18.6395C18.8466 18.7073 19.0145 18.5394 19.0145 18.3323V11.2073C19.0145 11.1047 18.9724 11.0065 18.8981 10.9357L16.1408 8.31074ZM20.0765 13.0823C20.0765 12.8752 20.2444 12.7073 20.4515 12.7073H22.875C23.0821 12.7073 23.25 12.8752 23.25 13.0823V18.3323C23.25 18.5394 23.0821 18.7073 22.875 18.7073H20.4515C20.2444 18.7073 20.0765 18.5394 20.0765 18.3323V13.0823ZM14.3795 14.0296C14.3795 13.7707 14.5894 13.5608 14.8483 13.5608H16.9162C17.1751 13.5608 17.385 13.7707 17.385 14.0296C17.385 14.2885 17.1751 14.4983 16.9162 14.4983H14.8483C14.5894 14.4983 14.3795 14.2885 14.3795 14.0296ZM14.8483 11.6053C14.5894 11.6053 14.3795 11.8152 14.3795 12.0741C14.3795 12.3329 14.5894 12.5428 14.8483 12.5428H16.9162C17.1751 12.5428 17.385 12.3329 17.385 12.0741C17.385 11.8152 17.1751 11.6053 16.9162 11.6053H14.8483Z" fill="white"/>
</g>
<defs>
<clipPath id="clip0_97_9554">
<rect width="10.5" height="10.5" fill="white" transform="translate(12.75 8.20734)"/>
</clipPath>
</defs>
</svg>
