<svg width="36" height="36" viewBox="0 0 36 36" fill="none" xmlns="http://www.w3.org/2000/svg">
<ellipse cx="18.4286" cy="32.5" rx="6.42857" ry="3.21429" fill="#D4D4D4"/>
<path d="M18 0.5C20.6693 0.5 23.2791 1.29599 25.499 2.78809C27.7189 4.28019 29.4495 6.40162 30.4717 8.88379C31.4938 11.3661 31.7613 14.098 31.2402 16.7334C30.7191 19.3689 29.4331 21.79 27.5449 23.6895L19.0635 32.2207C18.477 32.8104 17.523 32.8104 16.9365 32.2207L8.45508 23.6895C6.56686 21.79 5.28088 19.3689 4.75977 16.7334C4.23872 14.098 4.50619 11.3661 5.52832 8.88379C6.55049 6.40162 8.28108 4.28019 10.501 2.78809C12.7209 1.29599 15.3307 0.5 18 0.5Z" fill="#00A63E" stroke="white"/>
<path d="M18.1763 7.20734C19.6505 7.20734 20.8674 8.29257 21.0806 9.70734H21.6812C21.8165 9.70734 21.9263 9.81709 21.9263 9.95245V10.9622C21.9263 11.0976 21.8165 11.2073 21.6812 11.2073H21.1167C21.1164 11.3974 21.1141 11.584 21.1089 11.7659H21.2046C21.3269 11.7659 21.4262 11.8653 21.4263 11.9876V13.0443C21.4263 13.1666 21.327 13.2659 21.2046 13.2659H20.9038C20.821 13.5235 20.7072 13.7563 20.5483 13.9583C21.3458 14.6327 21.853 15.6398 21.853 16.7659V19.7073H14.5005V16.7659C14.5006 15.611 15.0327 14.5805 15.8657 13.9066C15.7194 13.7167 15.6051 13.502 15.5171 13.2659H15.1479C15.0256 13.2659 14.9263 13.1666 14.9263 13.0443V11.9876C14.9263 11.8653 15.0257 11.766 15.1479 11.7659H15.2515C15.2421 11.584 15.2368 11.3975 15.2358 11.2073H14.6714C14.5361 11.2072 14.4263 11.0975 14.4263 10.9622V9.95245C14.4263 9.81716 14.5361 9.70746 14.6714 9.70734H15.272C15.4851 8.29261 16.7022 7.20746 18.1763 7.20734ZM18.4136 11.0609C18.3517 10.8133 17.9999 10.8133 17.938 11.0609L17.2524 13.805C17.214 13.9595 17.3305 14.1096 17.4897 14.1097H18.8618C19.0211 14.1096 19.1385 13.9595 19.1001 13.805L18.4136 11.0609Z" fill="white"/>
</svg>
